<?xml version="1.0" standalone="no"?>
<!DOCTYPE svg PUBLIC "-//W3C//DTD SVG 20010904//EN"
 "http://www.w3.org/TR/2001/REC-SVG-20010904/DTD/svg10.dtd">
<svg version="1.0" xmlns="http://www.w3.org/2000/svg"
 width="1024.000000pt" height="1024.000000pt" viewBox="0 0 1024.000000 1024.000000"
 preserveAspectRatio="xMidYMid meet">

<g transform="translate(0.000000,1024.000000) scale(0.100000,-0.100000)"
fill="#000000" stroke="none">
<path d="M0 5120 l0 -5120 5120 0 5120 0 0 5120 0 5120 -5120 0 -5120 0 0
-5120z m5325 4230 c400 -33 796 -161 1146 -370 111 -67 261 -178 255 -189 -3
-5 4 -17 17 -27 l22 -19 -19 23 c-35 41 -4 22 78 -47 119 -102 190 -177 181
-192 -5 -7 -4 -10 3 -5 6 3 36 -23 69 -60 59 -67 77 -93 52 -79 -8 5 -11 5 -7
1 3 -4 8 -6 11 -4 6 5 37 -23 37 -34 0 -6 -8 -4 -17 3 -16 13 -17 12 -5 -3 8
-10 19 -16 25 -15 16 3 176 -238 241 -363 114 -220 193 -463 243 -749 26 -147
28 -173 27 -441 0 -268 -2 -293 -27 -425 -73 -375 -201 -694 -395 -985 -97
-146 -199 -273 -211 -265 -5 2 -17 -5 -27 -18 l-19 -22 23 19 c12 11 22 15 22
10 0 -13 -229 -238 -312 -307 -354 -294 -819 -500 -1268 -562 -141 -19 -453
-27 -575 -14 -233 24 -505 89 -702 168 -141 56 -345 159 -338 171 3 5 0 7 -8
5 -28 -11 -396 253 -382 275 3 5 0 12 -6 16 -8 4 -9 3 -5 -4 4 -7 3 -12 -1
-12 -17 0 -264 257 -260 271 2 8 2 10 -1 6 -2 -5 -15 2 -28 14 -25 23 -33 46
-12 33 7 -4 8 -3 4 5 -4 6 -11 9 -16 6 -12 -7 -75 73 -161 202 -197 299 -331
637 -395 1003 -35 195 -43 490 -20 702 43 412 165 769 371 1088 77 120 165
231 177 224 7 -5 8 -2 3 5 -8 14 33 63 46 55 5 -3 6 1 4 8 -6 16 236 258 340
340 189 149 389 268 594 353 415 172 816 239 1226 205z m-2851 -6521 l66 -12
0 -77 c0 -43 3 -92 6 -109 8 -39 -12 -42 -27 -3 -33 89 -117 150 -218 159 -70
7 -122 -8 -175 -50 -26 -20 -37 -25 -33 -14 9 24 0 21 -14 -4 -8 -15 -8 -19 0
-15 14 9 14 6 -5 -40 -22 -53 -15 -132 17 -178 32 -48 112 -103 229 -159 111
-53 184 -103 174 -119 -4 -6 -3 -8 3 -5 5 4 21 -6 35 -21 115 -122 75 -351
-79 -448 -79 -51 -157 -68 -283 -61 -58 3 -134 14 -170 24 l-65 18 -6 55 c-19
160 -20 200 -4 200 8 0 15 -8 15 -17 0 -35 48 -119 87 -154 100 -90 296 -90
377 0 10 11 22 18 26 16 4 -3 14 3 21 13 13 15 12 16 -3 3 -22 -16 -22 -5 -3
29 18 32 19 121 1 163 -7 18 -34 51 -60 74 -27 24 -41 43 -34 45 8 3 6 7 -6
11 -10 4 -15 3 -11 -3 10 -16 -1 -12 -103 39 -94 48 -159 90 -119 77 24 -7 21
1 -4 15 -15 8 -19 8 -15 0 4 -6 3 -11 -2 -11 -14 0 -102 80 -102 93 0 6 17 -5
38 -24 l37 -34 -34 37 c-19 21 -38 35 -43 32 -5 -3 -18 16 -29 41 -29 66 -24
190 9 255 81 156 244 207 506 159z m3300 -5 c76 -20 178 -72 234 -122 43 -37
61 -71 20 -36 l-23 19 19 -22 c10 -13 22 -20 27 -17 13 8 75 -96 100 -167 27
-78 37 -265 20 -351 -29 -140 -146 -305 -266 -377 -119 -72 -316 -101 -467
-70 -102 21 -279 123 -262 151 4 6 2 8 -4 5 -12 -8 -51 36 -86 96 -66 114 -92
296 -62 435 25 120 77 215 165 302 84 83 165 132 257 154 82 20 251 20 328 0z
m-4534 -16 c5 -13 89 -225 185 -473 97 -247 188 -477 204 -510 32 -69 65 -104
113 -121 28 -11 3 -13 -160 -13 -126 -1 -191 2 -187 9 3 6 17 10 29 10 13 0
34 8 46 18 22 18 22 18 5 78 -9 32 -37 114 -62 182 l-45 122 -198 0 -199 0
-19 -52 c-30 -82 -70 -218 -78 -266 -8 -49 13 -82 52 -82 13 0 26 -4 29 -10 4
-7 -50 -10 -154 -10 -101 0 -161 4 -161 10 0 6 11 10 24 10 34 0 73 35 101 90
13 26 59 137 100 246 42 110 126 325 186 480 60 154 109 286 109 292 0 7 15
12 35 12 27 0 38 -5 45 -22z m3275 -6 c137 -50 203 -149 192 -288 -9 -117 -80
-207 -203 -260 -55 -23 -62 -29 -51 -42 10 -13 9 -15 -5 -9 -26 9 -22 2 10
-19 23 -15 25 -15 13 -1 -23 29 1 19 36 -15 34 -33 46 -61 16 -37 -16 13 -17
12 -4 -3 7 -10 17 -15 22 -13 4 3 21 -14 37 -37 35 -51 142 -228 142 -236 0
-2 -8 2 -17 9 -16 13 -17 12 -4 -3 7 -10 17 -16 21 -13 3 2 24 -14 46 -36 42
-44 120 -89 154 -89 11 0 20 -5 20 -11 0 -15 -226 -7 -265 10 -21 9 -26 14
-16 20 10 6 9 10 -4 14 -9 4 -13 3 -10 -3 3 -6 2 -10 -4 -10 -23 0 -111 118
-173 233 -114 209 -151 247 -241 247 l-48 0 3 -231 c3 -229 3 -231 27 -250 13
-10 36 -19 52 -19 16 0 29 -4 29 -10 0 -6 -68 -10 -185 -10 -117 0 -185 4
-185 10 0 6 13 10 28 10 18 0 38 10 53 26 l24 26 3 456 c2 251 0 477 -3 501
-8 51 -42 91 -80 91 -14 0 -25 3 -25 8 0 4 120 7 268 6 247 -1 271 -2 327 -22z
m2152 -35 c11 -29 87 -216 168 -417 81 -201 152 -374 158 -385 8 -16 32 35
139 305 71 179 146 376 168 438 l38 113 137 0 c76 0 140 -2 143 -5 3 -3 -6 -6
-20 -6 -35 0 -74 -34 -82 -71 -3 -17 5 -176 19 -353 37 -473 52 -616 70 -642
8 -13 35 -29 62 -37 46 -14 40 -15 -142 -15 -174 -1 -194 3 -132 22 30 10 39
54 33 161 -13 212 -60 765 -65 765 -3 0 -25 -49 -49 -108 -130 -322 -347 -842
-352 -842 -3 0 -16 28 -29 63 -13 34 -73 179 -133 322 -60 143 -135 324 -166
402 -31 78 -59 140 -63 138 -3 -3 -9 -44 -12 -92 -3 -48 -15 -191 -26 -318
-36 -414 -37 -436 -11 -467 16 -21 30 -28 56 -28 19 0 34 -4 34 -10 0 -6 -57
-10 -151 -10 -97 0 -148 4 -144 10 3 6 16 10 29 10 24 0 45 19 65 57 12 23 24
137 67 608 30 333 29 378 -10 412 -15 13 -34 23 -42 23 -8 0 -14 3 -14 8 0 4
53 6 118 4 l117 -3 22 -52z m1621 48 c3 -3 -4 -5 -16 -5 -34 0 -52 -11 -70
-44 -15 -28 -17 -77 -20 -456 -1 -233 2 -455 7 -493 10 -75 31 -107 67 -107
13 0 26 -4 29 -10 4 -7 -58 -10 -179 -10 -117 0 -186 4 -186 10 0 6 11 10 24
10 13 0 32 3 42 7 12 4 15 3 10 -5 -4 -7 -2 -12 4 -12 7 0 10 6 7 13 -2 6 2
26 10 44 10 26 13 134 13 513 l0 482 -29 29 c-16 16 -39 29 -50 29 -12 0 -21
3 -21 8 0 8 349 6 358 -3z m632 3 c0 -5 -8 -8 -18 -8 -10 0 -28 -7 -40 -16
-28 -19 -29 -57 -2 -107 23 -42 25 -51 8 -41 -7 4 -8 3 -4 -5 4 -6 11 -9 16
-6 4 3 46 -56 92 -130 45 -74 85 -135 88 -134 3 0 31 40 63 90 32 49 62 87 66
84 5 -2 15 3 22 13 13 15 12 16 -3 3 -28 -21 -22 -6 28 68 49 74 66 138 43
158 -8 6 -30 16 -49 21 -27 8 3 11 138 13 94 2 172 1 172 -2 0 -3 -17 -11 -38
-17 -55 -17 -141 -111 -251 -275 -50 -76 -96 -135 -101 -132 -5 3 -12 0 -16
-6 -4 -8 -3 -9 4 -5 19 12 14 -5 -14 -41 l-26 -34 56 -88 c57 -90 72 -126 35
-81 l-21 25 14 -25 c9 -14 21 -25 27 -25 10 0 151 -207 151 -222 0 -3 -8 1
-17 8 -16 13 -17 12 -4 -3 7 -10 17 -15 22 -13 4 3 21 -14 38 -38 39 -57 98
-109 141 -126 19 -7 44 -17 55 -21 12 -5 -72 -9 -200 -9 -214 0 -219 0 -185
17 42 20 50 54 25 104 -28 55 -228 378 -234 378 -8 -1 -233 -344 -256 -388
-28 -57 -4 -89 74 -94 22 -2 41 -6 41 -10 0 -5 -87 -8 -192 -8 l-193 0 60 30
c72 35 73 36 50 10 -32 -35 -10 -21 26 17 18 20 28 33 22 29 -22 -12 -14 4 24
49 22 26 40 40 44 34 4 -7 9 -5 12 6 4 9 3 13 -3 10 -19 -12 -10 7 36 71 25
35 50 62 54 59 5 -3 12 0 16 6 4 8 3 9 -4 5 -25 -15 -8 13 72 124 70 95 82
118 72 130 -16 20 -76 119 -76 126 0 3 5 2 12 -2 7 -4 8 -3 4 5 -4 6 -11 9
-16 6 -12 -7 -113 152 -104 166 4 7 3 9 -3 6 -6 -4 -33 26 -61 66 -61 89 -128
152 -171 162 -68 15 -22 20 174 20 113 0 205 -3 205 -7z m-5200 -47 c0 -26 3
-76 7 -111 5 -51 4 -62 -8 -58 -8 2 -15 15 -17 29 -14 106 -38 119 -227 119
l-146 0 3 -482 c2 -383 6 -488 17 -509 14 -28 49 -49 81 -49 11 0 20 -4 20
-10 0 -6 -70 -10 -190 -10 -120 0 -190 4 -190 10 0 6 14 10 30 10 19 0 40 9
55 25 l25 24 0 496 0 495 -154 0 c-177 0 -196 -8 -217 -83 -19 -72 -19 -71
-29 -61 -7 7 -8 49 -4 112 l7 102 469 0 468 0 0 -49z"/>
<path d="M5288 9333 c7 -3 16 -2 19 1 4 3 -2 6 -13 5 -11 0 -14 -3 -6 -6z"/>
<path d="M4828 9323 c7 -3 16 -2 19 1 4 3 -2 6 -13 5 -11 0 -14 -3 -6 -6z"/>
<path d="M4903 9313 c9 -2 25 -2 35 0 9 3 1 5 -18 5 -19 0 -27 -2 -17 -5z"/>
<path d="M5478 9313 c7 -3 16 -2 19 1 4 3 -2 6 -13 5 -11 0 -14 -3 -6 -6z"/>
<path d="M4880 9293 c-246 -28 -454 -79 -676 -165 l-102 -39 123 -267 c155
-338 205 -446 209 -449 1 -1 33 10 72 26 148 63 416 111 616 111 208 0 454
-44 609 -109 40 -17 74 -30 75 -28 1 2 321 681 330 703 6 13 -109 63 -252 110
-118 38 -303 78 -454 98 -97 13 -465 19 -550 9z m124 -242 c56 -72 59 -87 9
-40 l-38 34 32 -35 c32 -35 32 -35 102 -30 l70 5 49 60 c35 44 54 60 72 60 36
0 41 -42 6 -51 -14 -3 -41 -25 -61 -49 l-35 -44 25 -37 c49 -72 26 -187 -45
-228 -42 -25 -118 -26 -154 -3 -79 52 -94 173 -30 242 l26 28 -48 48 c-27 27
-53 49 -60 49 -21 0 -35 25 -22 38 27 27 56 13 102 -47z"/>
<path d="M4931 9097 c2 -1 15 -11 29 -22 l25 -20 -19 23 c-11 12 -24 22 -29
22 -6 0 -8 -1 -6 -3z"/>
<path d="M5303 9085 c0 -8 4 -12 9 -9 5 3 6 10 3 15 -9 13 -12 11 -12 -6z"/>
<path d="M5085 8960 c-3 -6 1 -7 9 -4 18 7 21 14 7 14 -6 0 -13 -4 -16 -10z"/>
<path d="M5019 8938 c-5 -18 -6 -38 -1 -34 7 8 12 36 6 36 -2 0 -4 -1 -5 -2z"/>
<path d="M5044 8906 c-73 -73 -26 -186 77 -186 22 0 41 10 66 35 33 33 35 39
30 82 -4 37 -12 54 -36 75 -45 40 -93 38 -137 -6z"/>
<path d="M5185 8932 c4 -4 12 -7 18 -7 7 -1 11 -7 9 -14 -1 -7 2 -9 9 -6 13 9
-3 28 -27 31 -9 1 -13 -1 -9 -4z"/>
<path d="M4985 8859 c-4 -6 -5 -12 -2 -15 2 -3 7 2 10 11 7 17 1 20 -8 4z"/>
<path d="M5241 8844 c0 -11 3 -14 6 -6 3 7 2 16 -1 19 -3 4 -6 -2 -5 -13z"/>
<path d="M5231 8794 c0 -11 3 -14 6 -6 3 7 2 16 -1 19 -3 4 -6 -2 -5 -13z"/>
<path d="M5588 9293 c7 -3 16 -2 19 1 4 3 -2 6 -13 5 -11 0 -14 -3 -6 -6z"/>
<path d="M5628 9268 c5 -5 16 -8 23 -6 8 3 3 7 -10 11 -17 4 -21 3 -13 -5z"/>
<path d="M5728 9263 c7 -3 16 -2 19 1 4 3 -2 6 -13 5 -11 0 -14 -3 -6 -6z"/>
<path d="M3955 9020 c-182 -95 -365 -222 -515 -356 -34 -30 -66 -51 -72 -48
-6 4 -8 3 -5 -3 3 -5 -10 -25 -29 -44 -20 -19 -72 -76 -116 -126 -44 -51 -84
-90 -89 -88 -4 3 -11 0 -15 -6 -4 -8 -3 -9 4 -5 21 13 13 -1 -40 -73 -29 -38
-80 -112 -112 -165 -33 -52 -62 -93 -66 -91 -4 3 -14 -3 -21 -13 -13 -15 -12
-16 4 -3 24 19 22 10 -14 -60 -17 -34 -29 -62 -27 -64 6 -6 712 -345 713 -342
126 226 156 270 263 391 137 156 324 302 496 388 95 47 82 38 90 68 5 15 4 20
-1 13 -6 -8 -45 65 -115 215 -191 406 -219 462 -228 462 -5 0 -52 -22 -105
-50z m-197 -506 c0 -81 -3 -99 -19 -115 -24 -24 -50 -24 -82 1 -14 11 -30 20
-35 20 -17 0 -26 -41 -23 -97 2 -41 -1 -55 -18 -72 -27 -27 -40 -26 -84 4 -34
23 -37 23 -46 6 -6 -10 -7 -43 -4 -73 6 -57 -2 -73 -31 -62 -18 7 -21 39 -5
50 8 4 10 26 6 64 -9 79 7 93 68 61 70 -37 80 -29 80 63 0 64 3 81 18 90 13 8
24 7 48 -6 75 -43 108 -10 92 92 -10 64 -9 70 17 70 15 0 17 -12 18 -96z m182
-48 c0 -7 -9 -24 -21 -37 -15 -17 -19 -32 -15 -54 8 -40 -10 -92 -36 -106 -15
-8 -27 -6 -55 11 -48 28 -63 15 -63 -59 0 -94 -44 -127 -105 -79 -27 21 -28
21 -42 2 -11 -14 -13 -35 -9 -80 7 -65 -7 -93 -39 -80 -19 7 -20 40 -1 55 11
9 13 26 9 66 -6 61 6 85 41 85 11 0 30 -7 40 -15 25 -19 41 -19 61 1 13 13 15
28 10 69 -12 92 12 121 70 85 71 -44 106 -12 86 78 -12 57 -7 79 17 85 22 5
52 -10 52 -27z"/>
<path d="M3730 8580 c0 -11 4 -20 8 -20 4 0 8 9 8 20 0 11 -4 20 -8 20 -4 0
-8 -9 -8 -20z"/>
<path d="M3729 8438 c-5 -18 -6 -38 -1 -34 7 8 12 36 6 36 -2 0 -4 -1 -5 -2z"/>
<path d="M3667 8409 c7 -7 15 -10 18 -7 3 3 -2 9 -12 12 -14 6 -15 5 -6 -5z"/>
<path d="M3435 8301 c-3 -5 -2 -12 3 -15 5 -3 9 1 9 9 0 17 -3 19 -12 6z"/>
<path d="M3480 8286 c0 -2 8 -10 18 -17 15 -13 16 -12 3 4 -13 16 -21 21 -21
13z"/>
<path d="M3560 8260 c-9 -6 -10 -10 -3 -10 6 0 15 5 18 10 8 12 4 12 -15 0z"/>
<path d="M3415 8161 c-3 -5 -2 -12 3 -15 5 -3 9 1 9 9 0 17 -3 19 -12 6z"/>
<path d="M3880 8469 c0 -5 5 -7 10 -4 6 3 10 8 10 11 0 2 -4 4 -10 4 -5 0 -10
-5 -10 -11z"/>
<path d="M3881 8434 c0 -11 3 -14 6 -6 3 7 2 16 -1 19 -3 4 -6 -2 -5 -13z"/>
<path d="M3871 8303 c-10 -26 -10 -27 4 -9 8 11 15 23 15 28 0 15 -7 8 -19
-19z"/>
<path d="M3731 8204 c0 -11 3 -14 6 -6 3 7 2 16 -1 19 -3 4 -6 -2 -5 -13z"/>
<path d="M3580 8165 c-6 -8 -10 -22 -7 -32 4 -14 5 -13 6 5 1 13 10 26 24 32
15 6 17 9 6 9 -9 1 -22 -6 -29 -14z"/>
<path d="M3721 8167 c-1 -11 -6 -15 -13 -11 -7 5 -8 3 -3 -5 10 -16 29 2 22
21 -4 8 -6 7 -6 -5z"/>
<path d="M3660 8146 c0 -2 9 -6 20 -9 11 -3 18 -1 14 4 -5 9 -34 13 -34 5z"/>
<path d="M6161 9053 c-5 -10 -56 -119 -114 -243 -58 -124 -128 -274 -156 -333
-28 -60 -51 -112 -51 -117 0 -4 17 -15 39 -23 57 -23 213 -120 303 -189 195
-148 340 -317 457 -530 24 -43 45 -78 47 -78 3 0 96 42 207 94 111 52 267 124
347 161 80 37 148 69 152 72 9 5 -53 129 -121 242 -28 46 -48 88 -44 94 3 5 1
7 -4 4 -6 -4 -36 27 -67 68 -56 74 -66 92 -44 79 7 -4 8 -3 4 5 -4 6 -11 9
-15 6 -11 -6 -122 121 -125 143 -2 9 -6 15 -9 12 -8 -7 -137 121 -132 131 3 4
-3 13 -13 20 -15 13 -16 12 -3 -3 25 -33 1 -19 -66 38 -148 126 -324 244 -481
323 -92 46 -98 48 -111 24z m417 -486 c43 -44 50 -55 40 -67 -11 -12 -10 -12
4 -1 15 11 27 2 97 -65 45 -42 81 -83 81 -90 0 -28 -23 -25 -56 7 l-34 33 -32
-39 c-17 -22 -62 -70 -98 -107 l-66 -68 23 -22 c24 -23 30 -52 12 -63 -6 -4
-69 51 -142 123 -115 115 -129 132 -117 147 12 14 16 13 42 -12 l29 -28 100
104 99 105 -31 32 c-20 20 -29 39 -26 48 10 25 19 20 75 -37z"/>
<path d="M6522 8586 c7 -8 15 -12 17 -11 5 6 -10 25 -20 25 -5 0 -4 -6 3 -14z"/>
<path d="M6488 8387 l-97 -102 45 -45 45 -45 99 105 100 104 -42 43 c-23 24
-45 43 -48 43 -3 0 -49 -47 -102 -103z"/>
<path d="M6654 8463 c2 -10 5 -16 9 -13 3 3 18 -6 34 -20 20 -18 18 -14 -6 13
-19 20 -36 37 -37 37 -1 0 -1 -8 0 -17z"/>
<path d="M6499 8448 c0 -2 -2 -11 -4 -21 -3 -15 -1 -16 11 -6 16 13 19 29 4
29 -5 0 -10 -1 -11 -2z"/>
<path d="M6439 8369 c-47 -56 -47 -56 -20 -34 23 20 66 75 58 75 -2 0 -19 -18
-38 -41z"/>
<path d="M6670 8375 c-7 -9 -11 -17 -9 -20 3 -2 10 5 17 15 14 24 10 26 -8 5z"/>
<path d="M6740 8386 c0 -11 39 -50 45 -44 3 2 -6 15 -20 28 -14 13 -25 20 -25
16z"/>
<path d="M6300 8341 c0 -6 4 -13 10 -16 6 -3 7 1 4 9 -7 18 -14 21 -14 7z"/>
<path d="M6330 8306 c0 -2 8 -10 18 -17 15 -13 16 -12 3 4 -13 16 -21 21 -21
13z"/>
<path d="M6605 8302 c3 -3 -5 -17 -17 -31 -19 -21 -17 -20 10 3 37 35 36 33
17 33 -8 0 -13 -3 -10 -5z"/>
<path d="M6525 8220 c-10 -11 -14 -20 -9 -20 5 0 15 9 22 20 7 11 11 20 9 20
-2 0 -12 -9 -22 -20z"/>
<path d="M6429 8207 c25 -27 43 -39 22 -14 -6 8 -7 18 -3 23 4 5 3 6 -2 2 -5
-4 -16 -2 -25 4 -9 7 -5 0 8 -15z"/>
<path d="M6485 8150 c10 -11 20 -20 23 -20 3 0 -3 9 -13 20 -10 11 -20 20 -23
20 -3 0 3 -9 13 -20z"/>
<path d="M4096 9047 c3 -10 9 -15 12 -12 3 3 0 11 -7 18 -10 9 -11 8 -5 -6z"/>
<path d="M6300 9056 c0 -3 9 -10 20 -16 11 -6 20 -8 20 -6 0 3 -9 10 -20 16
-11 6 -20 8 -20 6z"/>
<path d="M4141 8955 c0 -5 11 -30 24 -55 13 -25 24 -40 24 -35 0 6 -11 30 -24
55 -13 25 -24 41 -24 35z"/>
<path d="M6082 8935 c-17 -37 -14 -45 4 -12 9 16 14 31 11 33 -2 2 -9 -7 -15
-21z"/>
<path d="M6583 8884 c9 -11 15 -23 12 -26 -3 -3 3 -11 12 -19 16 -12 17 -12 6
2 -7 9 -11 18 -8 21 3 3 -5 13 -17 24 -23 19 -23 19 -5 -2z"/>
<path d="M3639 8873 c-13 -16 -12 -17 4 -4 9 7 17 15 17 17 0 8 -8 3 -21 -13z"/>
<path d="M4211 8805 c0 -5 11 -30 24 -55 13 -25 24 -40 24 -35 0 6 -11 30 -24
55 -13 25 -24 41 -24 35z"/>
<path d="M6016 8793 c-6 -14 -5 -15 5 -6 7 7 10 15 7 18 -3 3 -9 -2 -12 -12z"/>
<path d="M3474 8748 l-19 -23 23 19 c21 18 27 26 19 26 -2 0 -12 -10 -23 -22z"/>
<path d="M5992 8745 c-17 -37 -14 -45 4 -12 9 16 14 31 11 33 -2 2 -9 -7 -15
-21z"/>
<path d="M6735 8740 c10 -11 20 -20 23 -20 3 0 -3 9 -13 20 -10 11 -20 20 -23
20 -3 0 3 -9 13 -20z"/>
<path d="M3404 8688 l-29 -33 35 30 c19 17 37 31 39 33 2 1 0 2 -5 2 -6 0 -23
-15 -40 -32z"/>
<path d="M6850 8676 c0 -2 8 -10 18 -17 15 -13 16 -12 3 4 -13 16 -21 21 -21
13z"/>
<path d="M4281 8655 c0 -5 6 -21 14 -35 8 -14 14 -20 14 -15 0 6 -6 21 -14 35
-8 14 -14 21 -14 15z"/>
<path d="M5936 8625 c-9 -26 -7 -32 5 -12 6 10 9 21 6 23 -2 3 -7 -2 -11 -11z"/>
<path d="M6965 8560 c10 -11 20 -20 23 -20 3 0 -3 9 -13 20 -10 11 -20 20 -23
20 -3 0 3 -9 13 -20z"/>
<path d="M3209 8493 c-13 -16 -12 -17 4 -4 16 13 21 21 13 21 -2 0 -10 -8 -17
-17z"/>
<path d="M4350 8501 c0 -6 4 -13 10 -16 6 -3 7 1 4 9 -7 18 -14 21 -14 7z"/>
<path d="M5867 8475 c-24 -50 -20 -58 4 -12 11 22 19 41 17 43 -3 2 -12 -12
-21 -31z"/>
<path d="M5033 8493 c9 -2 25 -2 35 0 9 3 1 5 -18 5 -19 0 -27 -2 -17 -5z"/>
<path d="M5103 8493 c9 -2 25 -2 35 0 9 3 1 5 -18 5 -19 0 -27 -2 -17 -5z"/>
<path d="M7010 8475 c13 -14 26 -25 28 -25 3 0 -5 11 -18 25 -13 14 -26 25
-28 25 -3 0 5 -11 18 -25z"/>
<path d="M4938 8483 c7 -3 16 -2 19 1 4 3 -2 6 -13 5 -11 0 -14 -3 -6 -6z"/>
<path d="M5293 8483 c9 -2 23 -2 30 0 6 3 -1 5 -18 5 -16 0 -22 -2 -12 -5z"/>
<path d="M7050 8465 c13 -14 26 -25 28 -25 3 0 -5 11 -18 25 -13 14 -26 25
-28 25 -3 0 5 -11 18 -25z"/>
<path d="M4910 8465 c-222 -31 -397 -85 -570 -177 -109 -59 -243 -142 -260
-163 -7 -8 -17 -15 -23 -15 -5 0 -2 10 9 23 l19 22 -23 -19 c-12 -11 -20 -22
-17 -24 7 -7 -35 -52 -48 -52 -6 0 0 12 14 27 13 15 -7 0 -46 -34 -38 -33 -79
-71 -90 -84 -11 -13 3 -3 30 22 94 86 90 74 -13 -36 -154 -164 -271 -345 -345
-531 -171 -434 -150 -968 54 -1377 64 -127 150 -257 223 -335 26 -28 28 -34
16 -43 -42 -27 -249 287 -340 514 -17 44 -27 57 -38 52 -9 -3 -122 -40 -251
-81 -130 -42 -291 -93 -358 -115 l-122 -40 30 -82 c42 -116 187 -407 253 -505
30 -46 53 -89 50 -96 -3 -7 3 -19 13 -27 16 -13 17 -12 4 4 -8 9 -12 20 -9 22
5 5 138 -159 138 -170 0 -3 -5 -3 -12 1 -7 4 -8 3 -4 -5 4 -6 11 -9 15 -6 13
8 153 -143 145 -156 -4 -7 -3 -9 3 -6 6 4 41 -20 78 -54 131 -118 359 -290
369 -278 1 2 42 68 90 147 48 78 92 140 96 137 5 -3 12 0 16 6 4 8 3 9 -4 5
-7 -4 -12 -4 -12 -1 0 16 123 204 130 200 5 -3 12 0 16 6 4 8 3 9 -4 5 -18
-11 -15 3 9 40 11 19 25 32 29 29 5 -3 12 0 16 6 4 8 3 9 -4 5 -19 -12 -14 7
13 46 14 20 25 41 25 46 0 4 -28 26 -62 48 -71 46 -221 169 -288 238 -37 38
-42 48 -30 56 11 7 30 -6 77 -52 34 -34 59 -66 56 -71 -3 -6 -1 -7 5 -3 5 3
34 -15 64 -40 239 -205 626 -359 961 -383 291 -20 577 38 863 173 105 50 245
138 301 189 13 11 25 18 29 15 3 -3 -23 -27 -58 -54 -73 -55 -91 -71 -63 -56
36 19 137 103 131 109 -7 7 235 259 245 256 7 -2 30 25 82 95 5 6 7 12 4 12
-3 0 -22 -23 -42 -50 -21 -28 -39 -49 -42 -46 -2 2 18 35 45 73 145 200 241
431 288 688 26 145 24 429 -4 585 -25 140 -74 292 -136 425 -47 101 -176 304
-215 339 -11 11 -21 24 -21 29 0 20 52 -39 112 -128 58 -86 91 -129 73 -95
-32 59 -136 197 -192 256 -37 39 -51 52 -30 29 68 -74 38 -61 -42 20 -44 43
-78 82 -76 85 4 7 -31 42 -70 71 -18 13 -19 13 -6 -3 7 -10 11 -18 8 -18 -3 0
-55 34 -116 75 -125 84 -215 132 -342 181 -253 98 -560 135 -819 99z m1320
-380 c13 -14 19 -25 13 -25 -5 0 -20 11 -33 25 -13 14 -19 25 -13 25 5 0 20
-11 33 -25z m-945 -60 c56 -9 140 -28 186 -44 l84 -29 -51 -1 c-141 -2 -316
-52 -449 -129 -94 -53 -271 -223 -329 -315 -132 -207 -196 -427 -196 -672 0
-344 115 -628 347 -857 193 -190 419 -295 646 -300 l88 -2 -63 -24 c-223 -84
-543 -88 -772 -10 -74 25 -205 90 -266 131 -70 47 -151 118 -145 127 3 5 0 12
-6 16 -8 4 -9 3 -5 -4 4 -7 3 -12 -3 -12 -14 0 -52 56 -43 65 4 5 2 5 -4 2
-25 -14 -138 136 -212 280 -97 192 -136 356 -137 578 0 174 23 300 82 450 60
152 180 344 205 329 7 -5 8 -3 3 5 -10 17 75 103 187 191 243 189 548 270 853
225z m533 -705 c18 -37 81 -79 122 -81 23 -1 23 -2 -5 -8 -79 -19 -116 -55
-140 -133 -10 -33 -14 -37 -15 -18 0 14 -9 44 -20 68 -15 33 -29 47 -62 62
-24 11 -54 20 -68 20 -17 1 -10 5 22 14 25 7 58 20 73 30 28 18 55 70 56 108
0 23 1 23 10 -2 6 -14 18 -41 27 -60z m-402 -661 c18 -19 43 -32 68 -36 l40
-6 -43 -13 c-65 -19 -110 -70 -112 -126 0 -13 -6 -2 -13 25 -17 60 -39 84 -95
102 -33 10 -39 14 -21 14 59 2 119 66 121 128 0 24 2 21 14 -16 7 -24 26 -57
41 -72z m-1993 -957 c-6 -52 -5 -55 13 -47 37 15 62 17 83 5 29 -15 21 -36
-12 -32 -31 4 -93 -27 -126 -62 -45 -48 -26 -116 31 -116 36 0 57 11 127 66
50 39 57 42 68 28 10 -14 5 -23 -38 -57 -27 -21 -52 -37 -55 -35 -2 3 2 11 11
18 8 7 15 17 15 23 0 6 -8 0 -17 -13 -10 -14 -17 -28 -16 -32 3 -9 -48 -49
-56 -44 -3 2 -7 -13 -9 -35 -5 -76 68 -77 152 -1 99 90 90 85 109 64 15 -17
13 -20 -45 -62 -82 -60 -108 -96 -108 -149 0 -38 -2 -42 -22 -39 -18 2 -23 9
-22 33 0 17 4 38 8 48 7 15 2 17 -37 17 -36 0 -49 5 -61 22 -18 26 -20 61 -6
89 9 17 7 19 -18 19 -35 0 -59 25 -68 68 -7 34 -13 39 -31 21 -13 -13 -33 -4
-33 14 0 7 27 34 60 60 l60 48 0 55 c0 63 13 96 35 88 12 -5 14 -18 8 -62z"/>
<path d="M5198 8013 c7 -3 16 -2 19 1 4 3 -2 6 -13 5 -11 0 -14 -3 -6 -6z"/>
<path d="M5298 8003 c7 -3 16 -2 19 1 4 3 -2 6 -13 5 -11 0 -14 -3 -6 -6z"/>
<path d="M4878 7993 c6 -2 18 -2 25 0 6 3 1 5 -13 5 -14 0 -19 -2 -12 -5z"/>
<path d="M4798 7973 c7 -3 16 -2 19 1 4 3 -2 6 -13 5 -11 0 -14 -3 -6 -6z"/>
<path d="M5448 7963 c6 -2 18 -2 25 0 6 3 1 5 -13 5 -14 0 -19 -2 -12 -5z"/>
<path d="M4284 7648 l-29 -33 33 29 c30 28 37 36 29 36 -2 0 -16 -15 -33 -32z"/>
<path d="M4804 7638 l-29 -33 33 29 c30 28 37 36 29 36 -2 0 -16 -15 -33 -32z"/>
<path d="M4622 7365 c-17 -37 -14 -45 4 -12 9 16 14 31 11 33 -2 2 -9 -7 -15
-21z"/>
<path d="M4001 6544 c0 -11 3 -14 6 -6 3 7 2 16 -1 19 -3 4 -6 -2 -5 -13z"/>
<path d="M4240 6043 c0 -6 8 -17 18 -24 16 -13 16 -13 2 6 -8 11 -16 22 -17
24 -2 2 -3 0 -3 -6z"/>
<path d="M4840 5986 c0 -2 8 -10 18 -17 15 -13 16 -12 3 4 -13 16 -21 21 -21
13z"/>
<path d="M4990 5856 c0 -2 8 -10 18 -17 15 -13 16 -12 3 4 -13 16 -21 21 -21
13z"/>
<path d="M4500 5796 c0 -2 7 -7 16 -10 8 -3 12 -2 9 4 -6 10 -25 14 -25 6z"/>
<path d="M5418 5663 c6 -2 18 -2 25 0 6 3 1 5 -13 5 -14 0 -19 -2 -12 -5z"/>
<path d="M5498 5653 c7 -3 16 -2 19 1 4 3 -2 6 -13 5 -11 0 -14 -3 -6 -6z"/>
<path d="M4818 5643 c7 -3 16 -2 19 1 4 3 -2 6 -13 5 -11 0 -14 -3 -6 -6z"/>
<path d="M5388 5623 c7 -3 16 -2 19 1 4 3 -2 6 -13 5 -11 0 -14 -3 -6 -6z"/>
<path d="M5678 7233 c7 -3 16 -2 19 1 4 3 -2 6 -13 5 -11 0 -14 -3 -6 -6z"/>
<path d="M3402 5710 c0 -14 2 -19 5 -12 2 6 2 18 0 25 -3 6 -5 1 -5 -13z"/>
<path d="M3473 5643 c9 -2 25 -2 35 0 9 3 1 5 -18 5 -19 0 -27 -2 -17 -5z"/>
<path d="M3300 5540 c-19 -17 -30 -30 -24 -30 6 0 23 14 39 30 36 38 30 38
-15 0z"/>
<path d="M3559 5513 c-13 -16 -12 -17 4 -4 9 7 17 15 17 17 0 8 -8 3 -21 -13z"/>
<path d="M3380 5436 c0 -2 7 -7 16 -10 8 -3 12 -2 9 4 -6 10 -25 14 -25 6z"/>
<path d="M3670 5408 c-10 -21 -10 -21 3 -6 8 10 18 14 22 10 5 -4 5 -1 1 6
-10 17 -14 15 -26 -10z"/>
<path d="M3615 5369 c-16 -16 -27 -29 -24 -29 10 0 64 49 59 53 -3 3 -18 -8
-35 -24z"/>
<path d="M3449 5297 c5 -5 21 -7 37 -5 27 3 26 4 -8 9 -22 3 -34 1 -29 -4z"/>
<path d="M3515 5229 c-8 -25 9 -47 20 -28 6 8 4 10 -5 4 -10 -6 -11 -2 -6 19
8 31 0 35 -9 5z"/>
<path d="M5368 8473 c6 -2 18 -2 25 0 6 3 1 5 -13 5 -14 0 -19 -2 -12 -5z"/>
<path d="M4788 8463 c6 -2 18 -2 25 0 6 3 1 5 -13 5 -14 0 -19 -2 -12 -5z"/>
<path d="M5438 8463 c7 -3 16 -2 19 1 4 3 -2 6 -13 5 -11 0 -14 -3 -6 -6z"/>
<path d="M5528 8443 c7 -3 16 -2 19 1 4 3 -2 6 -13 5 -11 0 -14 -3 -6 -6z"/>
<path d="M5608 8423 c7 -3 16 -2 19 1 4 3 -2 6 -13 5 -11 0 -14 -3 -6 -6z"/>
<path d="M3149 8393 c-13 -16 -12 -17 4 -4 16 13 21 21 13 21 -2 0 -10 -8 -17
-17z"/>
<path d="M5730 8380 c8 -5 20 -10 25 -10 6 0 3 5 -5 10 -8 5 -19 10 -25 10 -5
0 -3 -5 5 -10z"/>
<path d="M4445 8360 c-3 -6 1 -7 9 -4 18 7 21 14 7 14 -6 0 -13 -4 -16 -10z"/>
<path d="M7170 8316 c0 -2 8 -10 18 -17 15 -13 16 -12 3 4 -13 16 -21 21 -21
13z"/>
<path d="M4274 8274 c-18 -14 -18 -15 4 -4 12 6 22 13 22 15 0 8 -5 6 -26 -11z"/>
<path d="M5960 8276 c0 -3 9 -10 20 -16 11 -6 20 -8 20 -6 0 3 -9 10 -20 16
-11 6 -20 8 -20 6z"/>
<path d="M2989 8219 c-9 -17 -8 -20 2 -14 9 6 11 3 6 -8 -9 -25 -2 -21 19 11
17 26 17 27 -1 12 -17 -14 -18 -13 -12 3 9 24 0 21 -14 -4z"/>
<path d="M6090 8196 c0 -2 8 -10 18 -17 15 -13 16 -12 3 4 -13 16 -21 21 -21
13z"/>
<path d="M6130 8166 c0 -2 8 -10 18 -17 15 -13 16 -12 3 4 -13 16 -21 21 -21
13z"/>
<path d="M2950 8129 c0 -5 5 -7 10 -4 6 3 10 8 10 11 0 2 -4 4 -10 4 -5 0 -10
-5 -10 -11z"/>
<path d="M7310 8110 c6 -11 13 -20 16 -20 2 0 0 9 -6 20 -6 11 -13 20 -16 20
-2 0 0 -9 6 -20z"/>
<path d="M7340 8060 c6 -11 13 -20 16 -20 2 0 0 9 -6 20 -6 11 -13 20 -16 20
-2 0 0 -9 6 -20z"/>
<path d="M6295 8030 c10 -11 20 -20 23 -20 3 0 -3 9 -13 20 -10 11 -20 20 -23
20 -3 0 3 -9 13 -20z"/>
<path d="M3845 7932 c-12 -8 -96 -109 -110 -132 -10 -17 -5 -10 76 83 49 55
55 65 34 49z"/>
<path d="M2792 7768 c-196 -481 -242 -1034 -126 -1527 20 -87 52 -199 58 -208
1 -1 168 51 371 117 314 100 370 121 368 137 -1 10 -14 74 -29 143 -27 118
-28 139 -29 365 0 274 12 354 86 565 22 63 42 122 45 131 4 10 -1 18 -13 22
-10 3 -168 78 -351 166 -183 89 -337 161 -342 161 -4 0 -21 -33 -38 -72z m346
-625 c18 -20 25 -38 24 -73 0 -3 -3 -15 -7 -27 -5 -18 -1 -25 18 -32 71 -27
92 -141 26 -141 -15 0 -16 4 -6 29 9 24 7 34 -7 56 l-18 27 -176 -5 c-98 -3
-178 -6 -179 -6 -10 -3 0 -41 17 -69 31 -51 94 -74 186 -71 57 3 77 0 84 -11
5 -8 6 -18 4 -22 -3 -4 -63 -8 -134 -8 -140 0 -160 -7 -160 -57 0 -39 -25 -22
-28 20 -3 30 2 39 27 58 l29 22 -24 26 c-22 24 -44 77 -44 109 0 6 9 21 20 32
17 17 33 20 104 20 l83 0 -10 39 c-9 32 -8 44 7 66 37 56 120 65 164 18z"/>
<path d="M3053 7153 c9 -2 25 -2 35 0 9 3 1 5 -18 5 -19 0 -27 -2 -17 -5z"/>
<path d="M3017 7112 c-22 -25 -21 -48 3 -72 25 -25 62 -26 83 -2 20 22 22 63
5 80 -18 18 -73 14 -91 -6z"/>
<path d="M3138 7085 c2 -14 6 -25 8 -25 2 0 4 11 4 25 0 14 -4 25 -9 25 -4 0
-6 -11 -3 -25z"/>
<path d="M2981 7059 c-1 -9 7 -23 17 -30 15 -12 16 -12 6 1 -6 8 -14 22 -17
30 -5 13 -6 12 -6 -1z"/>
<path d="M2794 6986 c-3 -8 -4 -27 -1 -43 3 -24 4 -22 6 9 l1 37 98 4 97 3
-98 2 c-76 2 -99 -1 -103 -12z"/>
<path d="M3191 6975 c10 -11 19 -29 22 -40 4 -19 5 -19 6 1 0 11 -9 29 -21 40
-23 19 -23 19 -7 -1z"/>
<path d="M2809 6892 c5 -10 18 -25 27 -33 11 -9 9 -2 -6 19 -26 35 -36 42 -21
14z"/>
<path d="M3206 6893 c-6 -14 -5 -15 5 -6 7 7 10 15 7 18 -3 3 -9 -2 -12 -12z"/>
<path d="M2928 6813 c6 -2 18 -2 25 0 6 3 1 5 -13 5 -14 0 -19 -2 -12 -5z"/>
<path d="M2981 6817 c9 -9 109 -16 109 -8 0 4 -26 9 -57 10 -31 1 -55 0 -52
-2z"/>
<path d="M2815 6800 c-8 -13 5 -13 25 0 13 8 13 10 -2 10 -9 0 -20 -4 -23 -10z"/>
<path d="M2793 6765 c-3 -9 -3 -18 -1 -21 3 -3 8 4 11 16 6 23 -1 27 -10 5z"/>
<path d="M7115 7709 c-154 -72 -312 -145 -351 -162 l-71 -32 38 -100 c116
-307 141 -670 68 -1005 -12 -52 -22 -103 -23 -113 -1 -16 50 -36 309 -126 171
-59 336 -117 369 -130 32 -12 60 -20 62 -19 1 2 16 52 33 112 117 417 121 849
11 1289 -42 168 -134 417 -154 417 -6 0 -137 -59 -291 -131z m226 -532 c22
-15 47 -48 72 -97 56 -110 61 -219 17 -334 -8 -23 -12 -25 -29 -14 -18 11 -19
15 -5 46 18 43 17 174 -1 222 -10 29 -14 32 -20 17 -10 -24 -57 -47 -95 -47
-95 0 -149 97 -100 178 34 55 103 68 161 29z m-263 -102 c-16 -47 -19 -74 -14
-126 5 -57 22 -129 31 -129 2 0 19 16 38 35 25 25 44 35 66 35 76 0 131 -50
131 -120 0 -36 -17 -73 -30 -65 -5 3 -12 0 -16 -6 -4 -8 -3 -9 4 -5 7 4 12 3
12 -2 0 -13 -62 -42 -90 -42 -56 0 -109 52 -157 155 -25 54 -28 71 -28 165 0
91 3 111 23 149 20 37 26 41 37 30 12 -12 11 -23 -7 -74z"/>
<path d="M7248 7173 c7 -3 16 -2 19 1 4 3 -2 6 -13 5 -11 0 -14 -3 -6 -6z"/>
<path d="M7316 7158 c29 -23 58 -33 48 -17 -3 5 -9 7 -14 4 -5 -3 -15 3 -22
15 -7 11 -19 20 -27 20 -7 0 -1 -10 15 -22z"/>
<path d="M7243 7150 c-50 -20 -56 -77 -12 -114 37 -31 58 -33 93 -5 37 29 35
70 -5 103 -33 28 -42 30 -76 16z"/>
<path d="M7178 7063 c5 -21 7 -23 10 -9 2 10 0 22 -6 28 -6 6 -7 0 -4 -19z"/>
<path d="M7190 7026 c0 -2 8 -10 18 -17 15 -13 16 -12 3 4 -13 16 -21 21 -21
13z"/>
<path d="M7032 6997 c-1 -18 2 -45 7 -62 7 -25 8 -20 7 27 -3 64 -11 85 -14
35z"/>
<path d="M7051 6874 c0 -11 3 -14 6 -6 3 7 2 16 -1 19 -3 4 -6 -2 -5 -13z"/>
<path d="M7155 6859 c-3 -4 2 -6 10 -5 21 3 28 13 10 13 -9 0 -18 -4 -20 -8z"/>
<path d="M7183 6840 c-73 -29 -45 -140 35 -140 65 0 93 66 50 114 -27 29 -55
38 -85 26z"/>
<path d="M7460 7821 c0 -6 4 -13 10 -16 6 -3 7 1 4 9 -7 18 -14 21 -14 7z"/>
<path d="M3000 7775 c25 -13 50 -24 55 -24 6 0 -10 11 -35 24 -25 13 -49 24
-55 24 -5 0 10 -11 35 -24z"/>
<path d="M2745 7759 c-4 -6 -4 -13 -1 -16 3 -4 6 -1 6 6 0 7 5 9 12 5 7 -4 8
-3 4 4 -9 15 -13 15 -21 1z"/>
<path d="M3692 7743 c-26 -38 -34 -53 -29 -53 2 0 16 18 31 40 29 45 28 56 -2
13z"/>
<path d="M7510 7695 c0 -5 5 -17 10 -25 5 -8 10 -10 10 -5 0 6 -5 17 -10 25
-5 8 -10 11 -10 5z"/>
<path d="M3220 7670 c8 -5 20 -10 25 -10 6 0 3 5 -5 10 -8 5 -19 10 -25 10 -5
0 -3 -5 5 -10z"/>
<path d="M3640 7660 c-6 -11 -8 -20 -6 -20 3 0 10 9 16 20 6 11 8 20 6 20 -3
0 -10 -9 -16 -20z"/>
<path d="M6632 7585 c12 -24 23 -43 26 -41 4 5 -36 86 -43 86 -3 0 5 -20 17
-45z"/>
<path d="M3595 7580 c-9 -16 -13 -30 -11 -30 3 0 12 14 21 30 9 17 13 30 11
30 -3 0 -12 -13 -21 -30z"/>
<path d="M3481 7546 c2 -2 15 -9 29 -15 24 -11 24 -11 6 3 -16 13 -49 24 -35
12z"/>
<path d="M2676 7504 c-4 -14 -5 -28 -3 -31 3 -2 8 8 11 23 4 14 5 28 3 31 -3
2 -8 -8 -11 -23z"/>
<path d="M7561 7474 c0 -11 3 -14 6 -6 3 7 2 16 -1 19 -3 4 -6 -2 -5 -13z"/>
<path d="M7581 7464 c0 -11 3 -14 6 -6 3 7 2 16 -1 19 -3 4 -6 -2 -5 -13z"/>
<path d="M6700 7435 c0 -5 5 -17 10 -25 5 -8 10 -10 10 -5 0 6 -5 17 -10 25
-5 8 -10 11 -10 5z"/>
<path d="M2651 7404 c0 -11 3 -14 6 -6 3 7 2 16 -1 19 -3 4 -6 -2 -5 -13z"/>
<path d="M2641 7364 c0 -11 3 -14 6 -6 3 7 2 16 -1 19 -3 4 -6 -2 -5 -13z"/>
<path d="M2621 7354 c0 -11 3 -14 6 -6 3 7 2 16 -1 19 -3 4 -6 -2 -5 -13z"/>
<path d="M6731 7360 c0 -8 4 -22 9 -30 12 -18 12 -2 0 25 -6 13 -9 15 -9 5z"/>
<path d="M2611 7304 c0 -11 3 -14 6 -6 3 7 2 16 -1 19 -3 4 -6 -2 -5 -13z"/>
<path d="M6752 7300 c0 -8 4 -26 8 -40 6 -20 8 -21 8 -5 0 11 -3 29 -8 40 -5
12 -8 14 -8 5z"/>
<path d="M7631 7244 c0 -11 3 -14 6 -6 3 7 2 16 -1 19 -3 4 -6 -2 -5 -13z"/>
<path d="M3461 7224 c0 -11 3 -14 6 -6 3 7 2 16 -1 19 -3 4 -6 -2 -5 -13z"/>
<path d="M2611 7204 c0 -11 3 -14 6 -6 3 7 2 16 -1 19 -3 4 -6 -2 -5 -13z"/>
<path d="M2591 7194 c0 -11 3 -14 6 -6 3 7 2 16 -1 19 -3 4 -6 -2 -5 -13z"/>
<path d="M7622 7190 c0 -14 2 -19 5 -12 2 6 2 18 0 25 -3 6 -5 1 -5 -13z"/>
<path d="M6781 7174 c0 -11 3 -14 6 -6 3 7 2 16 -1 19 -3 4 -6 -2 -5 -13z"/>
<path d="M3441 7134 c0 -11 3 -14 6 -6 3 7 2 16 -1 19 -3 4 -6 -2 -5 -13z"/>
<path d="M6792 7120 c0 -14 2 -19 5 -12 2 6 2 18 0 25 -3 6 -5 1 -5 -13z"/>
<path d="M2582 7110 c0 -14 2 -19 5 -12 2 6 2 18 0 25 -3 6 -5 1 -5 -13z"/>
<path d="M7652 7105 c0 -16 2 -22 5 -12 2 9 2 23 0 30 -3 6 -5 -1 -5 -18z"/>
<path d="M3431 7084 c0 -11 3 -14 6 -6 3 7 2 16 -1 19 -3 4 -6 -2 -5 -13z"/>
<path d="M2591 7064 c0 -11 3 -14 6 -6 3 7 2 16 -1 19 -3 4 -6 -2 -5 -13z"/>
<path d="M6802 7060 c0 -14 2 -19 5 -12 2 6 2 18 0 25 -3 6 -5 1 -5 -13z"/>
<path d="M7662 7030 c0 -14 2 -19 5 -12 2 6 2 18 0 25 -3 6 -5 1 -5 -13z"/>
<path d="M3422 7010 c0 -19 2 -27 5 -17 2 9 2 25 0 35 -3 9 -5 1 -5 -18z"/>
<path d="M6812 6985 c0 -16 2 -22 5 -12 2 9 2 23 0 30 -3 6 -5 -1 -5 -18z"/>
<path d="M3414 6835 c0 -55 1 -76 3 -47 2 29 2 74 0 100 -2 26 -3 2 -3 -53z"/>
<path d="M6824 6775 c0 -60 1 -84 3 -52 2 32 2 81 0 110 -2 29 -3 3 -3 -58z"/>
<path d="M7671 6854 c0 -11 3 -14 6 -6 3 7 2 16 -1 19 -3 4 -6 -2 -5 -13z"/>
<path d="M2582 6805 c0 -16 2 -22 5 -12 2 9 2 23 0 30 -3 6 -5 -1 -5 -18z"/>
<path d="M2579 6703 c0 -16 -2 -38 -3 -50 -1 -12 0 -20 4 -18 8 5 13 95 5 95
-3 0 -5 -12 -6 -27z"/>
<path d="M3412 6700 c0 -19 2 -27 5 -17 2 9 2 25 0 35 -3 9 -5 1 -5 -18z"/>
<path d="M6812 6605 c0 -16 2 -22 5 -12 2 9 2 23 0 30 -3 6 -5 -1 -5 -18z"/>
<path d="M3422 6595 c0 -16 2 -22 5 -12 2 9 2 23 0 30 -3 6 -5 -1 -5 -18z"/>
<path d="M7661 6574 c0 -11 3 -14 6 -6 3 7 2 16 -1 19 -3 4 -6 -2 -5 -13z"/>
<path d="M7641 6554 c0 -11 3 -14 6 -6 3 7 2 16 -1 19 -3 4 -6 -2 -5 -13z"/>
<path d="M6801 6534 c0 -11 3 -14 6 -6 3 7 2 16 -1 19 -3 4 -6 -2 -5 -13z"/>
<path d="M3432 6520 c0 -14 2 -19 5 -12 2 6 2 18 0 25 -3 6 -5 1 -5 -13z"/>
<path d="M7641 6514 c0 -11 3 -14 6 -6 3 7 2 16 -1 19 -3 4 -6 -2 -5 -13z"/>
<path d="M2602 6465 c0 -16 2 -22 5 -12 2 9 2 23 0 30 -3 6 -5 -1 -5 -18z"/>
<path d="M3441 6464 c0 -11 3 -14 6 -6 3 7 2 16 -1 19 -3 4 -6 -2 -5 -13z"/>
<path d="M2606 6374 c-4 -14 -5 -28 -3 -31 3 -2 8 8 11 23 4 14 5 28 3 31 -3
2 -8 -8 -11 -23z"/>
<path d="M3461 6364 c0 -11 3 -14 6 -6 3 7 2 16 -1 19 -3 4 -6 -2 -5 -13z"/>
<path d="M6756 6324 c-4 -14 -5 -28 -3 -31 3 -2 8 8 11 23 4 14 5 28 3 31 -3
2 -8 -8 -11 -23z"/>
<path d="M3471 6324 c0 -11 3 -14 6 -6 3 7 2 16 -1 19 -3 4 -6 -2 -5 -13z"/>
<path d="M3491 6260 c0 -8 4 -24 9 -35 5 -13 9 -14 9 -5 0 8 -4 24 -9 35 -5
13 -9 14 -9 5z"/>
<path d="M2621 6244 c0 -11 3 -14 6 -6 3 7 2 16 -1 19 -3 4 -6 -2 -5 -13z"/>
<path d="M6731 6253 c-1 -6 -4 -20 -7 -30 -5 -17 -5 -17 6 0 6 10 9 23 6 30
-3 9 -5 9 -5 0z"/>
<path d="M6720 6157 c-44 -106 -139 -282 -147 -273 -2 2 0 15 7 28 11 22 10
22 -5 3 -8 -11 -13 -26 -10 -33 7 -20 -140 -220 -153 -207 -3 3 5 17 19 33
l24 27 -28 -25 c-15 -13 -25 -30 -22 -38 10 -26 -184 -210 -317 -300 -52 -36
-67 -41 -47 -15 12 14 10 14 -13 -1 -31 -20 -36 -29 -13 -20 11 4 13 2 10 -9
-4 -8 34 -78 90 -167 102 -161 117 -189 95 -175 -9 5 -11 4 -6 -4 4 -6 11 -9
16 -6 4 3 18 -10 29 -29 24 -37 27 -51 9 -40 -7 4 -8 3 -4 -5 4 -6 11 -9 16
-6 8 5 150 -212 150 -229 0 -4 -6 -4 -12 0 -8 4 -10 3 -5 -2 5 -5 12 -9 15 -9
4 0 12 -3 18 -7 12 -8 131 70 232 151 62 51 79 61 66 39 -4 -7 -3 -8 5 -4 6 4
9 11 6 15 -2 5 21 32 53 62 31 29 103 102 159 163 57 61 107 111 112 111 5 0
13 4 18 9 5 5 3 6 -4 2 -21 -12 -15 3 18 44 18 22 35 37 40 35 4 -3 11 0 15 6
4 8 3 9 -4 5 -20 -12 -14 -2 63 115 90 134 151 244 206 371 41 92 90 221 86
224 -1 0 -121 43 -267 94 -146 51 -313 110 -371 130 l-106 38 -43 -101z m165
-444 c16 -17 25 -37 25 -59 0 -39 -9 -64 -22 -64 -5 0 -6 5 -2 12 4 7 3 8 -4
4 -18 -11 -4 -29 42 -59 67 -42 95 -119 60 -163 -14 -17 -15 -17 -10 -1 4 11
2 16 -5 12 -5 -4 -7 -15 -4 -25 7 -21 -46 -50 -92 -50 -50 0 -118 52 -175 135
-54 77 -85 98 -117 78 -20 -13 -26 -69 -10 -89 9 -11 9 -18 0 -27 -21 -21 -56
26 -55 75 2 54 38 88 94 88 35 0 44 -6 82 -52 87 -104 140 -156 165 -163 61
-15 117 44 92 98 -17 37 -80 78 -131 84 -63 8 -95 28 -107 66 -33 100 98 175
174 100z"/>
<path d="M6808 5723 c7 -3 16 -2 19 1 4 3 -2 6 -13 5 -11 0 -14 -3 -6 -6z"/>
<path d="M6759 5713 c0 -5 -3 -25 -5 -47 -3 -27 0 -44 12 -57 35 -39 104 -11
104 42 0 37 20 29 21 -9 0 -15 3 -21 6 -14 9 22 -6 61 -25 62 -9 1 -38 2 -64
3 -37 1 -44 4 -36 14 7 9 7 13 -1 13 -6 0 -11 -3 -12 -7z"/>
<path d="M6727 5673 c-11 -10 -8 -51 3 -58 6 -4 7 -11 4 -17 -4 -7 -2 -8 5 -4
9 6 9 11 0 22 -6 8 -9 25 -7 39 6 27 5 29 -5 18z"/>
<path d="M6815 5570 c-16 -7 -17 -9 -3 -9 9 -1 20 4 23 9 7 11 7 11 -20 0z"/>
<path d="M6598 5563 c6 -2 18 -2 25 0 6 3 1 5 -13 5 -14 0 -19 -2 -12 -5z"/>
<path d="M6531 5474 c0 -11 3 -14 6 -6 3 7 2 16 -1 19 -3 4 -6 -2 -5 -13z"/>
<path d="M6700 5475 c7 -8 17 -15 22 -15 5 0 3 7 -6 15 -8 8 -18 15 -22 15 -3
0 -1 -7 6 -15z"/>
<path d="M6972 5440 c0 -19 2 -27 5 -17 2 9 2 25 0 35 -3 9 -5 1 -5 -18z"/>
<path d="M6546 5437 c3 -10 9 -15 12 -12 3 3 0 11 -7 18 -10 9 -11 8 -5 -6z"/>
<path d="M6725 5440 c3 -5 8 -10 11 -10 2 0 4 5 4 10 0 6 -5 10 -11 10 -5 0
-7 -4 -4 -10z"/>
<path d="M6746 5422 c-3 -5 5 -19 18 -31 16 -15 26 -19 31 -12 3 7 1 10 -6 9
-7 -2 -13 2 -14 9 0 18 -22 36 -29 25z"/>
<path d="M6838 5343 c6 -2 18 -2 25 0 6 3 1 5 -13 5 -14 0 -19 -2 -12 -5z"/>
<path d="M6888 5343 c6 -2 18 -2 25 0 6 3 1 5 -13 5 -14 0 -19 -2 -12 -5z"/>
<path d="M2646 6193 c-6 -14 -5 -15 5 -6 7 7 10 15 7 18 -3 3 -9 -2 -12 -12z"/>
<path d="M7601 6194 c0 -11 3 -14 6 -6 3 7 2 16 -1 19 -3 4 -6 -2 -5 -13z"/>
<path d="M3510 6191 c0 -6 4 -13 10 -16 6 -3 7 1 4 9 -7 18 -14 21 -14 7z"/>
<path d="M7571 6154 c0 -11 3 -14 6 -6 3 7 2 16 -1 19 -3 4 -6 -2 -5 -13z"/>
<path d="M6686 6135 c-9 -26 -7 -32 5 -12 6 10 9 21 6 23 -2 3 -7 -2 -11 -11z"/>
<path d="M3550 6105 c0 -5 5 -17 10 -25 5 -8 10 -10 10 -5 0 6 -5 17 -10 25
-5 8 -10 11 -10 5z"/>
<path d="M6647 6045 c-9 -19 -15 -35 -12 -35 7 0 37 61 33 66 -3 2 -12 -12
-21 -31z"/>
<path d="M3605 5990 c9 -16 18 -30 21 -30 2 0 -2 14 -11 30 -9 17 -18 30 -21
30 -2 0 2 -13 11 -30z"/>
<path d="M6600 5960 c-6 -11 -8 -20 -6 -20 3 0 10 9 16 20 6 11 8 20 6 20 -3
0 -10 -9 -16 -20z"/>
<path d="M3650 5914 c12 -23 33 -55 46 -70 14 -16 6 0 -16 35 -48 76 -62 93
-30 35z"/>
<path d="M7490 5905 c0 -5 5 -17 10 -25 5 -8 10 -10 10 -5 0 6 -5 17 -10 25
-5 8 -10 11 -10 5z"/>
<path d="M3720 5806 c0 -2 8 -10 18 -17 15 -13 16 -12 3 4 -13 16 -21 21 -21
13z"/>
<path d="M3750 5766 c0 -2 8 -10 18 -17 15 -13 16 -12 3 4 -13 16 -21 21 -21
13z"/>
<path d="M3800 5705 c13 -14 26 -25 28 -25 3 0 -5 11 -18 25 -13 14 -26 25
-28 25 -3 0 5 -11 18 -25z"/>
<path d="M6300 5573 l-85 -88 88 85 c81 79 92 90 84 90 -1 0 -41 -39 -87 -87z"/>
<path d="M3900 5595 c30 -30 57 -55 59 -55 3 0 -19 25 -49 55 -30 30 -57 55
-59 55 -3 0 19 -25 49 -55z"/>
<path d="M2900 5560 c6 -11 13 -20 16 -20 2 0 0 9 -6 20 -6 11 -13 20 -16 20
-2 0 0 -9 6 -20z"/>
<path d="M4003 5503 c9 -14 87 -77 87 -70 0 3 -21 22 -47 43 -26 21 -44 33
-40 27z"/>
<path d="M7270 5460 c-6 -11 -8 -20 -6 -20 3 0 10 9 16 20 6 11 8 20 6 20 -3
0 -10 -9 -16 -20z"/>
<path d="M4100 5426 c0 -2 8 -10 18 -17 15 -13 16 -12 3 4 -13 16 -21 21 -21
13z"/>
<path d="M4200 5356 c0 -3 9 -10 20 -16 11 -6 20 -8 20 -6 0 3 -9 10 -20 16
-11 6 -20 8 -20 6z"/>
<path d="M7179 5323 c-13 -16 -12 -17 4 -4 9 7 17 15 17 17 0 8 -8 3 -21 -13z"/>
<path d="M5928 5299 c-21 -11 -38 -22 -38 -24 0 -3 18 4 40 15 22 11 40 23 40
25 0 7 0 7 -42 -16z"/>
<path d="M6005 5296 c10 -14 19 -26 22 -26 7 0 -17 39 -28 46 -6 3 -3 -5 6
-20z"/>
<path d="M4224 5298 c-4 -7 -15 -24 -23 -38 -10 -15 -11 -21 -3 -17 6 5 12 5
12 2 0 -16 -123 -204 -130 -200 -5 3 -12 0 -16 -6 -4 -8 -3 -9 4 -5 7 4 12 4
12 0 0 -4 -57 -99 -126 -211 -70 -112 -125 -206 -123 -207 2 -2 60 -33 129
-69 486 -254 1029 -346 1555 -262 150 24 349 79 492 135 124 49 335 154 382
189 l23 17 -207 330 c-114 181 -210 332 -214 337 -4 4 -46 -11 -94 -33 -377
-177 -764 -229 -1120 -150 -156 34 -491 159 -474 176 3 3 19 -2 37 -11 18 -9
34 -15 36 -13 2 2 -17 14 -42 26 -25 12 -43 18 -39 12 8 -13 -1 -13 -24 -1
-14 8 -21 4 -35 -20 -10 -17 -20 -28 -23 -26 -2 3 3 17 12 31 10 14 15 26 12
26 -3 0 -9 -6 -13 -12z m904 -461 c107 1 209 4 228 8 29 5 34 3 34 -13 0 -27
-39 -32 -275 -32 -236 0 -275 5 -275 32 0 17 4 18 48 11 26 -4 134 -7 240 -6z
m-140 -127 l42 0 -6 -55 c-11 -88 33 -127 122 -111 43 9 64 46 64 116 l0 50
44 0 c24 0 64 3 90 6 41 6 46 5 46 -13 0 -18 -9 -21 -70 -27 l-70 -7 0 -35 c0
-53 -24 -101 -61 -120 -38 -19 -139 -15 -166 8 -23 18 -43 71 -43 111 0 32 -3
35 -37 41 -21 3 -53 6 -70 6 -27 0 -33 4 -33 21 0 20 4 21 53 15 28 -3 71 -6
95 -6z"/>
<path d="M4863 4823 c9 -2 25 -2 35 0 9 3 1 5 -18 5 -19 0 -27 -2 -17 -5z"/>
<path d="M5333 4823 c9 -2 25 -2 35 0 9 3 1 5 -18 5 -19 0 -27 -2 -17 -5z"/>
<path d="M4997 4813 c18 -2 50 -2 70 0 21 2 7 4 -32 4 -38 0 -55 -2 -38 -4z"/>
<path d="M5158 4813 c18 -2 45 -2 60 0 15 2 0 4 -33 4 -33 0 -45 -2 -27 -4z"/>
<path d="M4898 4693 c17 -2 47 -2 65 0 17 2 3 4 -33 4 -36 0 -50 -2 -32 -4z"/>
<path d="M5288 4693 c12 -2 30 -2 40 0 9 3 -1 5 -23 4 -22 0 -30 -2 -17 -4z"/>
<path d="M5002 4620 c0 -19 2 -27 5 -17 2 9 2 25 0 35 -3 9 -5 1 -5 -18z"/>
<path d="M5217 4590 c-3 -11 -1 -20 4 -20 5 0 9 9 9 20 0 11 -2 20 -4 20 -2 0
-6 -9 -9 -20z"/>
<path d="M5024 4543 c12 -14 29 -22 45 -22 l26 2 -25 4 c-14 3 -34 12 -45 21
-20 17 -20 17 -1 -5z"/>
<path d="M5150 4530 l-25 -8 28 -1 c15 -1 27 4 27 9 0 6 -1 10 -2 9 -2 -1 -14
-5 -28 -9z"/>
<path d="M7179 5283 c-13 -16 -12 -17 4 -4 9 7 17 15 17 17 0 8 -8 3 -21 -13z"/>
<path d="M6039 5245 c5 -11 17 -29 26 -40 l16 -20 -10 20 c-5 11 -17 29 -26
40 l-16 20 10 -20z"/>
<path d="M7149 5243 c-13 -16 -12 -17 4 -4 9 7 17 15 17 17 0 8 -8 3 -21 -13z"/>
<path d="M3100 5216 c0 -2 8 -10 18 -17 15 -13 16 -12 3 4 -13 16 -21 21 -21
13z"/>
<path d="M3140 5206 c0 -2 8 -10 18 -17 15 -13 16 -12 3 4 -13 16 -21 21 -21
13z"/>
<path d="M6090 5160 c6 -11 13 -20 16 -20 2 0 0 9 -6 20 -6 11 -13 20 -16 20
-2 0 0 -9 6 -20z"/>
<path d="M5488 5133 c7 -3 16 -2 19 1 4 3 -2 6 -13 5 -11 0 -14 -3 -6 -6z"/>
<path d="M5448 5123 c7 -3 16 -2 19 1 4 3 -2 6 -13 5 -11 0 -14 -3 -6 -6z"/>
<path d="M4878 5103 c7 -3 16 -2 19 1 4 3 -2 6 -13 5 -11 0 -14 -3 -6 -6z"/>
<path d="M5338 5103 c7 -3 16 -2 19 1 4 3 -2 6 -13 5 -11 0 -14 -3 -6 -6z"/>
<path d="M4973 5093 c9 -2 23 -2 30 0 6 3 -1 5 -18 5 -16 0 -22 -2 -12 -5z"/>
<path d="M5258 5093 c6 -2 18 -2 25 0 6 3 1 5 -13 5 -14 0 -19 -2 -12 -5z"/>
<path d="M3225 5070 c10 -11 20 -20 23 -20 3 0 -3 9 -13 20 -10 11 -20 20 -23
20 -3 0 3 -9 13 -20z"/>
<path d="M3250 5076 c0 -2 8 -10 18 -17 15 -13 16 -12 3 4 -13 16 -21 21 -21
13z"/>
<path d="M4040 5000 c-6 -11 -8 -20 -6 -20 3 0 10 9 16 20 6 11 8 20 6 20 -3
0 -10 -9 -16 -20z"/>
<path d="M6864 4928 l-19 -23 23 19 c12 11 22 21 22 23 0 8 -8 2 -26 -19z"/>
<path d="M3390 4936 c0 -2 8 -10 18 -17 15 -13 16 -12 3 4 -13 16 -21 21 -21
13z"/>
<path d="M6794 4888 l-19 -23 23 19 c12 11 22 21 22 23 0 8 -8 2 -26 -19z"/>
<path d="M3415 4880 c10 -11 20 -20 23 -20 3 0 -3 9 -13 20 -10 11 -20 20 -23
20 -3 0 3 -9 13 -20z"/>
<path d="M3495 4840 c10 -11 20 -20 23 -20 3 0 -3 9 -13 20 -10 11 -20 20 -23
20 -3 0 3 -9 13 -20z"/>
<path d="M3940 4840 c-6 -11 -8 -20 -6 -20 3 0 10 9 16 20 6 11 8 20 6 20 -3
0 -10 -9 -16 -20z"/>
<path d="M6290 4841 c5 -11 15 -23 21 -27 6 -3 3 5 -6 20 -20 30 -30 35 -15 7z"/>
<path d="M3555 4790 c10 -11 20 -20 23 -20 3 0 -3 9 -13 20 -10 11 -20 20 -23
20 -3 0 3 -9 13 -20z"/>
<path d="M3910 4790 c-6 -11 -8 -20 -6 -20 3 0 10 9 16 20 6 11 8 20 6 20 -3
0 -10 -9 -16 -20z"/>
<path d="M6330 4780 c6 -11 13 -20 16 -20 2 0 0 9 -6 20 -6 11 -13 20 -16 20
-2 0 0 -9 6 -20z"/>
<path d="M6679 4763 c-13 -16 -12 -17 4 -4 9 7 17 15 17 17 0 8 -8 3 -21 -13z"/>
<path d="M3600 4756 c0 -2 8 -10 18 -17 15 -13 16 -12 3 4 -13 16 -21 21 -21
13z"/>
<path d="M6619 4743 c-13 -16 -12 -17 4 -4 9 7 17 15 17 17 0 8 -8 3 -21 -13z"/>
<path d="M3590 4736 c0 -2 8 -10 18 -17 15 -13 16 -12 3 4 -13 16 -21 21 -21
13z"/>
<path d="M3860 4710 c-6 -11 -8 -20 -6 -20 3 0 10 9 16 20 6 11 8 20 6 20 -3
0 -10 -9 -16 -20z"/>
<path d="M3840 4586 c0 -2 7 -7 16 -10 8 -3 12 -2 9 4 -6 10 -25 14 -25 6z"/>
<path d="M6344 4564 c-18 -14 -18 -15 4 -4 12 6 22 13 22 15 0 8 -5 6 -26 -11z"/>
<path d="M3887 4539 c7 -7 15 -10 18 -7 3 3 -2 9 -12 12 -14 6 -15 5 -6 -5z"/>
<path d="M4230 4400 c8 -5 20 -10 25 -10 6 0 3 5 -5 10 -8 5 -19 10 -25 10 -5
0 -3 -5 5 -10z"/>
<path d="M4440 4330 c8 -5 22 -9 30 -9 10 0 8 3 -5 9 -27 12 -43 12 -25 0z"/>
<path d="M5820 4330 c8 -5 20 -10 25 -10 6 0 3 5 -5 10 -8 5 -19 10 -25 10 -5
0 -3 -5 5 -10z"/>
<path d="M5520 4260 c8 -5 20 -10 25 -10 6 0 3 5 -5 10 -8 5 -19 10 -25 10 -5
0 -3 -5 5 -10z"/>
<path d="M5598 4263 c7 -3 16 -2 19 1 4 3 -2 6 -13 5 -11 0 -14 -3 -6 -6z"/>
<path d="M4698 4253 c7 -3 16 -2 19 1 4 3 -2 6 -13 5 -11 0 -14 -3 -6 -6z"/>
<path d="M4898 4243 c7 -3 16 -2 19 1 4 3 -2 6 -13 5 -11 0 -14 -3 -6 -6z"/>
<path d="M5312 4245 c3 -3 30 -8 59 -11 30 -3 50 -2 46 2 -4 4 -30 9 -59 11
-28 1 -49 0 -46 -2z"/>
<path d="M2258 2823 c7 -3 16 -2 19 1 4 3 -2 6 -13 5 -11 0 -14 -3 -6 -6z"/>
<path d="M2263 2803 c9 -2 23 -2 30 0 6 3 -1 5 -18 5 -16 0 -22 -2 -12 -5z"/>
<path d="M2059 2763 c-13 -16 -12 -17 4 -4 16 13 21 21 13 21 -2 0 -10 -8 -17
-17z"/>
<path d="M2518 2710 c-2 -22 0 -40 4 -40 5 0 8 18 8 40 0 22 -2 40 -4 40 -2 0
-6 -18 -8 -40z"/>
<path d="M1966 2633 c-6 -14 -5 -15 5 -6 7 7 10 15 7 18 -3 3 -9 -2 -12 -12z"/>
<path d="M1951 2544 c0 -11 3 -14 6 -6 3 7 2 16 -1 19 -3 4 -6 -2 -5 -13z"/>
<path d="M2300 2316 c0 -2 7 -7 16 -10 8 -3 12 -2 9 4 -6 10 -25 14 -25 6z"/>
<path d="M2545 2130 c9 -16 18 -30 21 -30 2 0 -2 14 -11 30 -9 17 -18 30 -21
30 -2 0 2 -13 11 -30z"/>
<path d="M1931 1904 c0 -11 3 -14 6 -6 3 7 2 16 -1 19 -3 4 -6 -2 -5 -13z"/>
<path d="M2530 1840 c-6 -11 -8 -20 -6 -20 3 0 10 9 16 20 6 11 8 20 6 20 -3
0 -10 -9 -16 -20z"/>
<path d="M1942 1800 c0 -19 2 -27 5 -17 2 9 2 25 0 35 -3 9 -5 1 -5 -18z"/>
<path d="M2168 1683 c6 -2 18 -2 25 0 6 3 1 5 -13 5 -14 0 -19 -2 -12 -5z"/>
<path d="M5578 2823 c6 -2 18 -2 25 0 6 3 1 5 -13 5 -14 0 -19 -2 -12 -5z"/>
<path d="M5668 2823 c7 -3 16 -2 19 1 4 3 -2 6 -13 5 -11 0 -14 -3 -6 -6z"/>
<path d="M5518 2793 c7 -3 16 -2 19 1 4 3 -2 6 -13 5 -11 0 -14 -3 -6 -6z"/>
<path d="M5628 2793 c6 -2 18 -2 25 0 6 3 1 5 -13 5 -14 0 -19 -2 -12 -5z"/>
<path d="M5334 2764 c-18 -14 -18 -15 4 -4 12 6 22 13 22 15 0 8 -5 6 -26 -11z"/>
<path d="M5487 2770 c-92 -24 -178 -89 -226 -174 -97 -168 -99 -458 -4 -638
38 -73 39 -75 17 -58 -18 14 -18 14 -5 -2 7 -10 16 -16 20 -13 4 2 29 -18 56
-45 175 -178 493 -127 613 98 88 164 83 428 -10 605 -43 82 -132 171 -203 204
-63 28 -190 40 -258 23z"/>
<path d="M5867 2769 c7 -7 15 -10 18 -7 3 3 -2 9 -12 12 -14 6 -15 5 -6 -5z"/>
<path d="M5405 2760 c-3 -6 1 -7 9 -4 18 7 21 14 7 14 -6 0 -13 -4 -16 -10z"/>
<path d="M5329 2713 l-24 -28 28 24 c15 14 27 26 27 28 0 8 -8 1 -31 -24z"/>
<path d="M5855 2690 c10 -11 20 -20 23 -20 3 0 -3 9 -13 20 -10 11 -20 20 -23
20 -3 0 3 -9 13 -20z"/>
<path d="M5957 2653 c-10 -9 -9 -23 1 -23 5 0 9 7 9 15 0 17 -1 18 -10 8z"/>
<path d="M5149 2613 c-13 -16 -12 -17 4 -4 9 7 17 15 17 17 0 8 -8 3 -21 -13z"/>
<path d="M5976 2517 c3 -10 9 -15 12 -12 3 3 0 11 -7 18 -10 9 -11 8 -5 -6z"/>
<path d="M6021 2384 c0 -11 3 -14 6 -6 3 7 2 16 -1 19 -3 4 -6 -2 -5 -13z"/>
<path d="M6031 2324 c0 -11 3 -14 6 -6 3 7 2 16 -1 19 -3 4 -6 -2 -5 -13z"/>
<path d="M6163 2270 c0 -25 2 -35 4 -22 2 12 2 32 0 45 -2 12 -4 2 -4 -23z"/>
<path d="M6161 2204 c0 -11 3 -14 6 -6 3 7 2 16 -1 19 -3 4 -6 -2 -5 -13z"/>
<path d="M5171 2164 c0 -11 3 -14 6 -6 3 7 2 16 -1 19 -3 4 -6 -2 -5 -13z"/>
<path d="M6031 2124 c0 -11 3 -14 6 -6 3 7 2 16 -1 19 -3 4 -6 -2 -5 -13z"/>
<path d="M5176 2117 c3 -10 9 -15 12 -12 3 3 0 11 -7 18 -10 9 -11 8 -5 -6z"/>
<path d="M5191 2064 c0 -11 3 -14 6 -6 3 7 2 16 -1 19 -3 4 -6 -2 -5 -13z"/>
<path d="M6131 2073 c-1 -6 -4 -20 -7 -30 -5 -17 -5 -17 6 0 6 10 9 23 6 30
-3 9 -5 9 -5 0z"/>
<path d="M5055 2040 c3 -5 8 -10 11 -10 2 0 4 5 4 10 0 6 -5 10 -11 10 -5 0
-7 -4 -4 -10z"/>
<path d="M5990 1969 c0 -5 5 -7 10 -4 6 3 10 8 10 11 0 2 -4 4 -10 4 -5 0 -10
-5 -10 -11z"/>
<path d="M6065 1934 c-9 -15 -12 -23 -6 -20 11 7 35 46 28 46 -3 0 -12 -12
-22 -26z"/>
<path d="M6009 1863 l-24 -28 28 24 c15 14 27 26 27 28 0 8 -8 1 -31 -24z"/>
<path d="M5303 1847 c0 -8 6 -14 14 -14 9 0 10 4 2 14 -6 7 -12 13 -14 13 -1
0 -2 -6 -2 -13z"/>
<path d="M5904 1838 l-19 -23 23 19 c12 11 22 21 22 23 0 8 -8 2 -26 -19z"/>
<path d="M5949 1803 c-13 -16 -12 -17 4 -4 16 13 21 21 13 21 -2 0 -10 -8 -17
-17z"/>
<path d="M5210 1807 c0 -3 12 -12 26 -22 15 -9 23 -12 20 -6 -7 11 -46 35 -46
28z"/>
<path d="M5874 1754 c-18 -14 -18 -15 4 -4 12 6 22 13 22 15 0 8 -5 6 -26 -11z"/>
<path d="M5317 1739 c7 -7 15 -10 18 -7 3 3 -2 9 -12 12 -14 6 -15 5 -6 -5z"/>
<path d="M5535 1712 c6 -7 107 -3 114 4 3 3 -23 4 -57 3 -34 -1 -60 -4 -57 -7z"/>
<path d="M5543 1683 c9 -2 25 -2 35 0 9 3 1 5 -18 5 -19 0 -27 -2 -17 -5z"/>
<path d="M5628 1683 c6 -2 18 -2 25 0 6 3 1 5 -13 5 -14 0 -19 -2 -12 -5z"/>
<path d="M1106 2633 c-6 -14 -5 -15 5 -6 7 7 10 15 7 18 -3 3 -9 -2 -12 -12z"/>
<path d="M1145 2603 c-3 -10 -37 -103 -75 -208 -38 -104 -71 -198 -75 -207 -7
-17 5 -18 169 -18 97 0 176 2 176 5 0 3 -25 65 -56 138 -30 72 -69 168 -86
212 -35 92 -43 103 -53 78z"/>
<path d="M1190 2583 c0 -4 5 -15 10 -23 8 -13 10 -13 10 2 0 9 -4 20 -10 23
-5 3 -10 3 -10 -2z"/>
<path d="M1340 2495 c0 -5 5 -17 10 -25 5 -8 10 -10 10 -5 0 6 -5 17 -10 25
-5 8 -10 11 -10 5z"/>
<path d="M1021 2324 c0 -11 3 -14 6 -6 3 7 2 16 -1 19 -3 4 -6 -2 -5 -13z"/>
<path d="M1290 2335 c0 -5 5 -17 10 -25 5 -8 10 -10 10 -5 0 6 -5 17 -10 25
-5 8 -10 11 -10 5z"/>
<path d="M916 2145 c-9 -26 -7 -32 5 -12 6 10 9 21 6 23 -2 3 -7 -2 -11 -11z"/>
<path d="M1037 2153 c18 -2 50 -2 70 0 21 2 7 4 -32 4 -38 0 -55 -2 -38 -4z"/>
<path d="M1163 2153 c9 -2 23 -2 30 0 6 3 -1 5 -18 5 -16 0 -22 -2 -12 -5z"/>
<path d="M1223 2153 c9 -2 25 -2 35 0 9 3 1 5 -18 5 -19 0 -27 -2 -17 -5z"/>
<path d="M1078 2133 c7 -3 16 -2 19 1 4 3 -2 6 -13 5 -11 0 -14 -3 -6 -6z"/>
<path d="M1218 2133 c6 -2 18 -2 25 0 6 3 1 5 -13 5 -14 0 -19 -2 -12 -5z"/>
<path d="M1396 2067 c3 -10 9 -15 12 -12 3 3 0 11 -7 18 -10 9 -11 8 -5 -6z"/>
<path d="M866 2015 c-9 -26 -7 -32 5 -12 6 10 9 21 6 23 -2 3 -7 -2 -11 -11z"/>
<path d="M906 1995 c-3 -9 -6 -22 -5 -28 0 -7 5 -1 10 12 5 13 8 26 5 28 -2 2
-6 -3 -10 -12z"/>
<path d="M1451 1924 c0 -11 3 -14 6 -6 3 7 2 16 -1 19 -3 4 -6 -2 -5 -13z"/>
<path d="M861 1844 c0 -11 3 -14 6 -6 3 7 2 16 -1 19 -3 4 -6 -2 -5 -13z"/>
<path d="M1620 1791 c0 -6 4 -13 10 -16 6 -3 7 1 4 9 -7 18 -14 21 -14 7z"/>
<path d="M1640 1756 c0 -2 8 -10 18 -17 15 -13 16 -12 3 4 -13 16 -21 21 -21
13z"/>
<path d="M729 1723 l-24 -28 28 24 c25 23 32 31 24 31 -2 0 -14 -12 -28 -27z"/>
<path d="M4018 2803 c12 -2 30 -2 40 0 9 3 -1 5 -23 4 -22 0 -30 -2 -17 -4z"/>
<path d="M4127 2803 c18 -2 50 -2 70 0 21 2 7 4 -32 4 -38 0 -55 -2 -38 -4z"/>
<path d="M4243 2803 c11 -10 107 -12 107 -2 0 5 -25 9 -57 9 -31 0 -53 -3 -50
-7z"/>
<path d="M4400 2806 c0 -2 11 -6 25 -8 13 -3 22 -1 19 3 -5 9 -44 13 -44 5z"/>
<path d="M4175 2780 c-3 -6 1 -7 9 -4 18 7 21 14 7 14 -6 0 -13 -4 -16 -10z"/>
<path d="M4230 2771 l-45 -6 -3 -249 -2 -248 97 4 c142 6 214 50 253 155 50
135 5 276 -105 324 -47 20 -132 29 -195 20z"/>
<path d="M4550 2766 c0 -2 7 -7 16 -10 8 -3 12 -2 9 4 -6 10 -25 14 -25 6z"/>
<path d="M4485 2730 c10 -11 20 -20 23 -20 3 0 -3 9 -13 20 -10 11 -20 20 -23
20 -3 0 3 -9 13 -20z"/>
<path d="M4605 2730 c10 -11 20 -20 23 -20 3 0 -3 9 -13 20 -10 11 -20 20 -23
20 -3 0 3 -9 13 -20z"/>
<path d="M4041 2654 c0 -11 3 -14 6 -6 3 7 2 16 -1 19 -3 4 -6 -2 -5 -13z"/>
<path d="M4681 2604 c0 -11 3 -14 6 -6 3 7 2 16 -1 19 -3 4 -6 -2 -5 -13z"/>
<path d="M4561 2584 c0 -11 3 -14 6 -6 3 7 2 16 -1 19 -3 4 -6 -2 -5 -13z"/>
<path d="M4692 2530 c0 -19 2 -27 5 -17 2 9 2 25 0 35 -3 9 -5 1 -5 -18z"/>
<path d="M4604 2338 l-29 -33 33 29 c17 17 32 31 32 33 0 8 -8 1 -36 -29z"/>
<path d="M4479 2323 l-24 -28 28 24 c25 23 32 31 24 31 -2 0 -14 -12 -28 -27z"/>
<path d="M4395 2270 c-3 -6 1 -7 9 -4 18 7 21 14 7 14 -6 0 -13 -4 -16 -10z"/>
<path d="M4395 2116 c10 -14 19 -26 22 -26 7 0 -17 39 -28 46 -6 3 -3 -5 6
-20z"/>
<path d="M4041 2104 c0 -11 3 -14 6 -6 3 7 2 16 -1 19 -3 4 -6 -2 -5 -13z"/>
<path d="M4550 1950 c0 -5 5 -10 11 -10 5 0 7 5 4 10 -3 6 -8 10 -11 10 -2 0
-4 -4 -4 -10z"/>
<path d="M4670 1890 c6 -11 13 -20 16 -20 2 0 0 9 -6 20 -6 11 -13 20 -16 20
-2 0 0 -9 6 -20z"/>
<path d="M4042 1805 c0 -16 2 -22 5 -12 2 9 2 23 0 30 -3 6 -5 -1 -5 -18z"/>
<path d="M4125 1820 c-3 -6 1 -7 9 -4 18 7 21 14 7 14 -6 0 -13 -4 -16 -10z"/>
<path d="M4585 1800 c10 -11 20 -20 23 -20 3 0 -3 9 -13 20 -10 11 -20 20 -23
20 -3 0 3 -9 13 -20z"/>
<path d="M4720 1816 c0 -2 8 -10 18 -17 15 -13 16 -12 3 4 -13 16 -21 21 -21
13z"/>
<path d="M4770 1766 c0 -2 8 -10 18 -17 15 -13 16 -12 3 4 -13 16 -21 21 -21
13z"/>
<path d="M6508 2803 c6 -2 18 -2 25 0 6 3 1 5 -13 5 -14 0 -19 -2 -12 -5z"/>
<path d="M6578 2803 c6 -2 18 -2 25 0 6 3 1 5 -13 5 -14 0 -19 -2 -12 -5z"/>
<path d="M6630 2790 c6 -11 13 -20 16 -20 2 0 0 9 -6 20 -6 11 -13 20 -16 20
-2 0 0 -9 6 -20z"/>
<path d="M7378 2803 c18 -2 45 -2 60 0 15 2 0 4 -33 4 -33 0 -45 -2 -27 -4z"/>
<path d="M7493 2803 c9 -2 25 -2 35 0 9 3 1 5 -18 5 -19 0 -27 -2 -17 -5z"/>
<path d="M6511 2734 c0 -11 3 -14 6 -6 3 7 2 16 -1 19 -3 4 -6 -2 -5 -13z"/>
<path d="M7492 2685 c0 -16 2 -22 5 -12 2 9 2 23 0 30 -3 6 -5 -1 -5 -18z"/>
<path d="M7297 2661 c-4 -17 -3 -21 5 -13 5 5 8 16 6 23 -3 8 -7 3 -11 -10z"/>
<path d="M6512 2595 c0 -16 2 -22 5 -12 2 9 2 23 0 30 -3 6 -5 -1 -5 -18z"/>
<path d="M6710 2601 c0 -6 4 -13 10 -16 6 -3 7 1 4 9 -7 18 -14 21 -14 7z"/>
<path d="M6542 2580 c0 -14 2 -19 5 -12 2 6 2 18 0 25 -3 6 -5 1 -5 -13z"/>
<path d="M6600 2595 c0 -5 5 -17 10 -25 5 -8 10 -10 10 -5 0 6 -5 17 -10 25
-5 8 -10 11 -10 5z"/>
<path d="M7266 2575 c-9 -26 -7 -32 5 -12 6 10 9 21 6 23 -2 3 -7 -2 -11 -11z"/>
<path d="M7501 2554 c0 -11 3 -14 6 -6 3 7 2 16 -1 19 -3 4 -6 -2 -5 -13z"/>
<path d="M6626 2527 c3 -10 9 -15 12 -12 3 3 0 11 -7 18 -10 9 -11 8 -5 -6z"/>
<path d="M7286 2525 c-9 -26 -7 -32 5 -12 6 10 9 21 6 23 -2 3 -7 -2 -11 -11z"/>
<path d="M7391 2514 c0 -11 3 -14 6 -6 3 7 2 16 -1 19 -3 4 -6 -2 -5 -13z"/>
<path d="M7236 2505 c-9 -26 -7 -32 5 -12 6 10 9 21 6 23 -2 3 -7 -2 -11 -11z"/>
<path d="M6532 2470 c0 -14 2 -19 5 -12 2 6 2 18 0 25 -3 6 -5 1 -5 -13z"/>
<path d="M7256 2455 c-9 -26 -7 -32 5 -12 6 10 9 21 6 23 -2 3 -7 -2 -11 -11z"/>
<path d="M6790 2401 c0 -6 4 -13 10 -16 6 -3 7 1 4 9 -7 18 -14 21 -14 7z"/>
<path d="M6492 2375 c0 -16 2 -22 5 -12 2 9 2 23 0 30 -3 6 -5 -1 -5 -18z"/>
<path d="M7402 2380 c0 -14 2 -19 5 -12 2 6 2 18 0 25 -3 6 -5 1 -5 -13z"/>
<path d="M6820 2335 c0 -5 5 -17 10 -25 5 -8 10 -10 10 -5 0 6 -5 17 -10 25
-5 8 -10 11 -10 5z"/>
<path d="M6483 2280 c0 -25 2 -35 4 -22 2 12 2 32 0 45 -2 12 -4 2 -4 -23z"/>
<path d="M7156 2295 c-9 -26 -7 -32 5 -12 6 10 9 21 6 23 -2 3 -7 -2 -11 -11z"/>
<path d="M6511 2264 c0 -11 3 -14 6 -6 3 7 2 16 -1 19 -3 4 -6 -2 -5 -13z"/>
<path d="M6473 2175 c0 -22 2 -30 4 -17 2 12 2 30 0 40 -3 9 -5 -1 -4 -23z"/>
<path d="M7532 2160 c0 -14 2 -19 5 -12 2 6 2 18 0 25 -3 6 -5 1 -5 -13z"/>
<path d="M6501 2114 c0 -11 3 -14 6 -6 3 7 2 16 -1 19 -3 4 -6 -2 -5 -13z"/>
<path d="M6796 2117 c3 -10 9 -15 12 -12 3 3 0 11 -7 18 -10 9 -11 8 -5 -6z"/>
<path d="M6461 2054 c0 -11 3 -14 6 -6 3 7 2 16 -1 19 -3 4 -6 -2 -5 -13z"/>
<path d="M7543 2035 c0 -22 2 -30 4 -17 2 12 2 30 0 40 -3 9 -5 -1 -4 -23z"/>
<path d="M6830 2035 c0 -5 5 -17 10 -25 5 -8 10 -10 10 -5 0 6 -5 17 -10 25
-5 8 -10 11 -10 5z"/>
<path d="M7432 2010 c0 -19 2 -27 5 -17 2 9 2 25 0 35 -3 9 -5 1 -5 -18z"/>
<path d="M6960 1985 c0 -5 5 -17 10 -25 5 -8 10 -10 10 -5 0 6 -5 17 -10 25
-5 8 -10 11 -10 5z"/>
<path d="M7552 1915 c0 -16 2 -22 5 -12 2 9 2 23 0 30 -3 6 -5 -1 -5 -18z"/>
<path d="M7035 1919 c-4 -6 -5 -12 -2 -15 2 -3 7 2 10 11 7 17 1 20 -8 4z"/>
<path d="M6880 1915 c0 -5 5 -17 10 -25 5 -8 10 -10 10 -5 0 6 -5 17 -10 25
-5 8 -10 11 -10 5z"/>
<path d="M6482 1875 c0 -16 2 -22 5 -12 2 9 2 23 0 30 -3 6 -5 -1 -5 -18z"/>
<path d="M7442 1870 c0 -19 2 -27 5 -17 2 9 2 25 0 35 -3 9 -5 1 -5 -18z"/>
<path d="M7561 1814 c0 -11 3 -14 6 -6 3 7 2 16 -1 19 -3 4 -6 -2 -5 -13z"/>
<path d="M6431 1794 c0 -11 3 -14 6 -6 3 7 2 16 -1 19 -3 4 -6 -2 -5 -13z"/>
<path d="M6482 1770 c0 -14 2 -19 5 -12 2 6 2 18 0 25 -3 6 -5 1 -5 -13z"/>
<path d="M7441 1754 c0 -11 3 -14 6 -6 3 7 2 16 -1 19 -3 4 -6 -2 -5 -13z"/>
<path d="M7570 1751 c0 -9 49 -56 53 -50 1 2 -10 16 -25 31 -15 15 -28 23 -28
19z"/>
<path d="M8010 2799 c0 -5 5 -7 10 -4 6 3 10 8 10 11 0 2 -4 4 -10 4 -5 0 -10
-5 -10 -11z"/>
<path d="M8078 2803 c18 -2 45 -2 60 0 15 2 0 4 -33 4 -33 0 -45 -2 -27 -4z"/>
<path d="M8188 2803 c7 -3 16 -2 19 1 4 3 -2 6 -13 5 -11 0 -14 -3 -6 -6z"/>
<path d="M8162 2635 c0 -16 2 -22 5 -12 2 9 2 23 0 30 -3 6 -5 -1 -5 -18z"/>
<path d="M8162 2555 c0 -16 2 -22 5 -12 2 9 2 23 0 30 -3 6 -5 -1 -5 -18z"/>
<path d="M8162 2495 c0 -16 2 -22 5 -12 2 9 2 23 0 30 -3 6 -5 -1 -5 -18z"/>
<path d="M8162 2410 c0 -19 2 -27 5 -17 2 9 2 25 0 35 -3 9 -5 1 -5 -18z"/>
<path d="M8162 2215 c0 -16 2 -22 5 -12 2 9 2 23 0 30 -3 6 -5 -1 -5 -18z"/>
<path d="M8163 2140 c0 -25 2 -35 4 -22 2 12 2 32 0 45 -2 12 -4 2 -4 -23z"/>
<path d="M8162 2000 c0 -14 2 -19 5 -12 2 6 2 18 0 25 -3 6 -5 1 -5 -13z"/>
<path d="M8608 2803 c6 -2 18 -2 25 0 6 3 1 5 -13 5 -14 0 -19 -2 -12 -5z"/>
<path d="M8673 2803 c15 -2 39 -2 55 0 15 2 2 4 -28 4 -30 0 -43 -2 -27 -4z"/>
<path d="M8768 2803 c7 -3 16 -2 19 1 4 3 -2 6 -13 5 -11 0 -14 -3 -6 -6z"/>
<path d="M9288 2803 c6 -2 18 -2 25 0 6 3 1 5 -13 5 -14 0 -19 -2 -12 -5z"/>
<path d="M9348 2803 c6 -2 18 -2 25 0 6 3 1 5 -13 5 -14 0 -19 -2 -12 -5z"/>
<path d="M9408 2803 c7 -3 16 -2 19 1 4 3 -2 6 -13 5 -11 0 -14 -3 -6 -6z"/>
<path d="M9395 2751 l-49 -56 54 51 c30 29 62 54 70 57 10 4 9 5 -5 5 -12 0
-41 -24 -70 -57z"/>
<path d="M8650 2746 c0 -2 8 -10 18 -17 15 -13 16 -12 3 4 -13 16 -21 21 -21
13z"/>
<path d="M8730 2636 c0 -2 8 -10 18 -17 15 -13 16 -12 3 4 -13 16 -21 21 -21
13z"/>
<path d="M9240 2550 c-6 -11 -8 -20 -6 -20 3 0 10 9 16 20 6 11 8 20 6 20 -3
0 -10 -9 -16 -20z"/>
<path d="M8939 2193 c-13 -16 -12 -17 4 -4 16 13 21 21 13 21 -2 0 -10 -8 -17
-17z"/>
<path d="M8909 2153 c-13 -16 -12 -17 4 -4 16 13 21 21 13 21 -2 0 -10 -8 -17
-17z"/>
<path d="M8739 1913 c-13 -16 -12 -17 4 -4 16 13 21 21 13 21 -2 0 -10 -8 -17
-17z"/>
<path d="M9430 1776 c0 -2 8 -10 18 -17 15 -13 16 -12 3 4 -13 16 -21 21 -21
13z"/>
<path d="M8732 1714 c10 -10 20 -16 22 -13 3 3 -5 11 -17 18 -21 13 -21 12 -5
-5z"/>
<path d="M2848 2803 c17 -2 47 -2 65 0 17 2 3 4 -33 4 -36 0 -50 -2 -32 -4z"/>
<path d="M2952 2805 c7 -7 569 -7 576 0 3 3 -127 5 -288 5 -161 0 -291 -2
-288 -5z"/>
<path d="M3588 2803 c18 -2 45 -2 60 0 15 2 0 4 -33 4 -33 0 -45 -2 -27 -4z"/>
<path d="M2790 2735 c0 -32 3 -55 7 -51 7 7 5 97 -3 105 -2 2 -4 -22 -4 -54z"/>
<path d="M3048 2773 c6 -2 18 -2 25 0 6 3 1 5 -13 5 -14 0 -19 -2 -12 -5z"/>
<path d="M3697 2728 c-2 -7 -1 -22 4 -33 6 -16 8 -14 8 13 1 33 -4 41 -12 20z"/>
<path d="M3313 2635 c0 -22 2 -30 4 -17 2 12 2 30 0 40 -3 9 -5 -1 -4 -23z"/>
<path d="M3311 2544 c0 -11 3 -14 6 -6 3 7 2 16 -1 19 -3 4 -6 -2 -5 -13z"/>
<path d="M3311 2444 c0 -11 3 -14 6 -6 3 7 2 16 -1 19 -3 4 -6 -2 -5 -13z"/>
<path d="M3312 2260 c0 -14 2 -19 5 -12 2 6 2 18 0 25 -3 6 -5 1 -5 -13z"/>
<path d="M3311 2214 c0 -11 3 -14 6 -6 3 7 2 16 -1 19 -3 4 -6 -2 -5 -13z"/>
<path d="M3311 2174 c0 -11 3 -14 6 -6 3 7 2 16 -1 19 -3 4 -6 -2 -5 -13z"/>
<path d="M3311 2134 c0 -11 3 -14 6 -6 3 7 2 16 -1 19 -3 4 -6 -2 -5 -13z"/>
<path d="M3311 2054 c0 -11 3 -14 6 -6 3 7 2 16 -1 19 -3 4 -6 -2 -5 -13z"/>
<path d="M3312 1985 c0 -16 2 -22 5 -12 2 9 2 23 0 30 -3 6 -5 -1 -5 -18z"/>
<path d="M3311 1924 c0 -11 3 -14 6 -6 3 7 2 16 -1 19 -3 4 -6 -2 -5 -13z"/>
<path d="M3312 1845 c0 -16 2 -22 5 -12 2 9 2 23 0 30 -3 6 -5 -1 -5 -18z"/>
<path d="M3185 1749 c-4 -6 -5 -12 -2 -15 2 -3 7 2 10 11 7 17 1 20 -8 4z"/>
</g>
</svg>
