<?xml version="1.0" standalone="no"?>
<!DOCTYPE svg PUBLIC "-//W3C//DTD SVG 20010904//EN"
 "http://www.w3.org/TR/2001/REC-SVG-20010904/DTD/svg10.dtd">
<svg version="1.0" xmlns="http://www.w3.org/2000/svg"
 width="1024.000000pt" height="1024.000000pt" viewBox="0 0 1024.000000 1024.000000"
 preserveAspectRatio="xMidYMid meet">

<g transform="translate(0.000000,1024.000000) scale(0.100000,-0.100000)"
fill="#000000" stroke="none">
<path d="M0 5120 l0 -5120 5120 0 5120 0 0 5120 0 5120 -5120 0 -5120 0 0
-5120z m5824 4391 c546 -97 1010 -389 1243 -781 119 -198 206 -429 245 -642
31 -176 31 -445 -1 -607 -43 -221 -127 -457 -306 -861 -152 -343 -205 -505
-251 -765 -25 -141 -28 -184 -28 -360 0 -173 4 -222 28 -363 39 -228 132 -575
202 -753 34 -89 27 -95 -118 -91 -337 10 -768 -67 -1378 -245 -632 -185 -871
-232 -1114 -220 -59 3 -110 7 -111 9 -2 2 5 34 15 71 27 96 77 420 90 573 10
129 3 239 -19 295 -10 27 -64 80 -101 100 -18 10 -92 15 -260 20 -325 9 -427
34 -539 135 -98 88 -117 189 -68 354 49 165 45 216 -24 297 -23 25 -48 61 -56
78 -14 29 -14 37 2 84 9 28 21 53 26 56 15 10 10 45 -6 45 -25 0 -95 75 -95
102 0 14 18 66 40 116 41 93 51 162 30 203 -15 26 -72 49 -145 55 -111 11
-195 92 -195 189 0 63 20 99 180 315 63 85 153 214 201 285 179 272 191 300
170 412 -29 146 -30 171 -21 299 16 231 61 406 160 625 68 150 142 260 258
381 250 260 546 434 908 533 253 69 384 85 689 80 180 -2 256 -7 349 -24z
m-3401 -6903 c84 -217 197 -520 299 -803 76 -211 99 -249 173 -288 28 -15 17
-16 -187 -17 -139 0 -218 4 -218 10 0 6 16 10 35 10 41 0 85 36 85 70 0 11
-21 80 -46 152 -25 73 -53 154 -62 181 l-16 47 -221 0 -221 0 -57 -174 c-59
-180 -68 -235 -42 -256 8 -6 36 -18 62 -25 44 -12 34 -13 -140 -14 -123 -1
-186 2 -182 9 3 6 16 10 27 10 12 0 38 18 58 39 31 32 56 87 138 293 55 139
128 327 162 418 34 91 83 221 110 290 26 69 60 158 75 198 24 66 29 72 55 72
26 0 30 -7 113 -222z m1504 211 c43 -5 117 -19 166 -30 l87 -21 0 -119 c0 -65
-4 -119 -9 -119 -5 0 -23 29 -39 64 -50 107 -139 155 -302 163 -210 11 -370
-69 -481 -240 -59 -91 -80 -164 -86 -302 -10 -229 39 -375 174 -516 104 -108
185 -149 310 -156 163 -10 287 38 385 148 34 38 66 69 70 69 4 0 8 -10 8 -22
0 -27 -59 -188 -76 -207 -19 -21 -199 -61 -306 -68 -148 -9 -309 22 -429 83
-103 51 -221 189 -276 319 -61 144 -69 351 -18 500 50 151 168 300 291 369
140 79 341 111 531 85z m-2287 -52 c0 -19 3 -68 6 -110 8 -93 -5 -101 -40 -24
-41 93 -37 92 -282 95 l-214 3 0 -258 c0 -188 3 -262 12 -271 8 -8 61 -12 171
-12 182 0 206 8 232 72 8 21 17 38 20 38 3 0 5 -66 5 -146 0 -109 -3 -145 -12
-142 -7 3 -16 18 -20 35 -10 40 -51 79 -89 87 -41 8 -199 8 -266 0 l-53 -7 0
-257 c0 -157 4 -269 11 -288 12 -34 40 -56 90 -70 25 -8 -23 -10 -176 -10
-198 -1 -214 2 -140 24 55 17 55 11 55 627 l0 569 -29 29 c-17 17 -40 29 -55
29 -13 0 -27 4 -30 8 -3 5 177 9 400 10 l404 3 0 -34z m3684 -19 c8 -73 8
-168 -1 -168 -5 0 -21 26 -38 57 -49 93 -54 95 -267 100 -106 2 -189 0 -197
-5 -23 -16 -30 -88 -31 -298 0 -143 3 -203 12 -212 8 -8 62 -12 178 -12 146 0
169 2 197 20 18 11 35 31 39 45 3 14 12 25 20 25 16 0 17 -33 7 -182 -6 -92
-16 -121 -29 -80 -32 102 -54 112 -251 112 -81 0 -154 -4 -162 -9 -11 -7 -13
-51 -9 -247 6 -329 4 -325 212 -332 203 -7 261 15 337 125 31 44 49 55 49 27
0 -8 -12 -60 -27 -115 l-26 -99 -411 0 c-269 0 -406 4 -396 10 8 5 25 10 38
10 13 0 34 11 48 25 l24 25 -2 580 c-3 564 -4 580 -23 599 -11 11 -38 27 -60
35 -36 13 -3 15 361 15 l401 1 7 -52z m735 -44 c21 -49 84 -195 140 -324 215
-491 238 -546 246 -569 8 -26 17 -20 33 24 6 17 80 199 165 405 85 206 167
411 182 455 16 44 31 83 34 86 3 4 71 9 151 12 125 5 140 4 106 -7 -62 -20
-76 -45 -76 -136 0 -172 53 -957 70 -1035 10 -44 58 -95 90 -95 10 0 22 -4 25
-10 4 -7 -62 -10 -192 -10 l-198 0 42 20 c28 12 44 27 47 42 12 58 14 131 6
228 -7 87 -34 586 -43 790 l-2 55 -18 -40 c-15 -32 -271 -659 -411 -1007 -33
-83 -58 -101 -70 -52 -4 15 -70 173 -147 353 -116 268 -250 593 -283 685 -3
10 -9 17 -11 14 -3 -3 -12 -142 -20 -309 -8 -167 -16 -342 -19 -389 -3 -47 -7
-138 -8 -204 -2 -118 -2 -119 25 -142 16 -13 46 -27 68 -30 21 -4 39 -9 39
-13 0 -3 -83 -8 -185 -10 -119 -2 -185 0 -185 7 0 5 15 13 33 16 41 8 94 60
107 106 5 18 14 139 20 269 6 130 15 324 20 431 20 396 16 427 -58 451 -20 6
-40 14 -44 18 -4 3 58 6 139 5 l145 -1 37 -89z m1881 79 c-19 -8 -45 -24 -57
-36 l-23 -20 0 -573 0 -573 23 -25 c12 -14 40 -32 62 -40 37 -14 25 -15 -165
-15 -191 0 -202 1 -165 15 22 8 49 24 60 35 19 19 20 35 23 567 2 301 0 561
-3 579 -8 43 -33 71 -76 86 -32 11 -11 13 160 13 180 1 193 0 161 -13z m810 7
c0 -5 -14 -10 -30 -10 -34 0 -80 -38 -80 -65 0 -18 258 -435 269 -435 8 1 198
297 233 364 15 28 27 59 28 69 0 31 -45 67 -85 67 -19 0 -35 4 -35 8 0 6 282
8 363 3 22 -2 1 -19 -42 -35 -26 -9 -60 -29 -73 -44 -28 -29 -186 -258 -287
-414 l-63 -98 178 -277 c184 -288 242 -361 306 -394 21 -11 38 -22 38 -24 0
-3 -96 -5 -212 -4 l-213 0 43 19 c23 11 45 27 49 36 10 27 -27 100 -163 311
l-129 203 -23 -28 c-38 -46 -239 -345 -266 -397 -42 -78 -31 -109 50 -130 45
-13 34 -14 -149 -14 -130 -1 -196 2 -192 9 3 6 13 10 21 10 62 0 125 72 402
462 l111 157 -40 63 c-22 35 -104 162 -181 283 -77 121 -150 230 -161 243 -11
12 -39 27 -61 33 -78 21 -70 24 84 29 284 10 310 10 310 0z"/>
<path d="M5418 9523 c12 -2 30 -2 40 0 9 3 -1 5 -23 4 -22 0 -30 -2 -17 -4z"/>
<path d="M5318 9473 c57 -2 147 -2 200 0 53 1 7 3 -103 3 -110 0 -154 -2 -97
-3z"/>
<path d="M5128 9463 c6 -2 18 -2 25 0 6 3 1 5 -13 5 -14 0 -19 -2 -12 -5z"/>
<path d="M5058 9453 c7 -3 16 -2 19 1 4 3 -2 6 -13 5 -11 0 -14 -3 -6 -6z"/>
<path d="M5090 9435 c-127 -18 -347 -67 -445 -100 -89 -29 -305 -138 -411
-207 -165 -106 -337 -274 -444 -433 -104 -155 -197 -396 -232 -604 -26 -162
-29 -345 -5 -420 25 -79 22 -155 -8 -219 -46 -100 -205 -346 -330 -512 -167
-223 -215 -309 -199 -356 21 -58 81 -90 194 -104 69 -9 78 -13 113 -49 57 -62
53 -117 -26 -304 -31 -73 -25 -100 28 -136 22 -15 42 -36 44 -46 2 -11 8 -23
14 -27 7 -4 2 -23 -16 -56 -15 -27 -27 -59 -27 -70 0 -12 18 -42 40 -67 85
-98 97 -162 60 -317 -37 -156 -21 -268 50 -331 102 -93 182 -113 482 -121 179
-5 215 -9 265 -28 74 -27 123 -77 154 -153 22 -55 24 -74 24 -225 0 -176 -17
-354 -60 -624 l-5 -29 162 6 c90 3 190 12 223 20 33 8 134 31 225 52 91 20
262 66 380 102 403 123 665 189 910 232 151 26 397 51 510 51 85 0 90 1 90 21
0 15 4 19 16 15 12 -5 15 -2 9 11 -4 10 -30 88 -57 173 -153 484 -200 899
-143 1260 41 258 92 412 304 904 198 459 255 641 282 891 13 124 6 313 -17
444 -19 109 -94 340 -150 459 -174 374 -495 643 -960 805 -96 33 -276 74 -431
96 -98 15 -497 12 -613 -4z m820 -575 c44 -33 128 -104 187 -158 128 -114 541
-520 553 -543 5 -8 12 -139 15 -290 4 -151 11 -312 16 -359 14 -133 11 -176
-20 -279 -16 -53 -48 -161 -70 -241 -22 -80 -92 -300 -156 -490 -118 -353
-167 -515 -185 -607 -11 -59 2 -481 24 -778 7 -100 10 -187 5 -196 -5 -9 -21
-20 -36 -23 -16 -4 -41 -13 -58 -20 -35 -16 -350 -118 -545 -176 -74 -23 -209
-65 -300 -95 -296 -96 -491 -153 -510 -148 -16 4 -19 21 -25 151 -20 467 -60
722 -126 806 -24 31 -45 32 -173 11 -121 -20 -280 -29 -349 -21 -64 8 -116 39
-135 79 -7 15 -18 71 -23 125 -13 136 -39 282 -54 312 -7 14 -22 34 -34 44
-12 11 -21 23 -21 28 0 5 21 32 47 60 54 56 56 48 -27 101 -31 20 -35 28 -38
70 -2 26 4 85 12 131 21 108 20 172 -3 221 -18 41 -82 104 -142 140 -50 31
-56 46 -32 91 66 128 218 436 262 532 96 210 91 189 112 496 27 412 14 363
137 534 193 271 362 470 415 488 18 7 88 17 157 24 164 16 874 48 968 45 73
-3 74 -4 152 -65z"/>
<path d="M5335 8859 c-335 -13 -605 -35 -605 -50 0 -5 3 -9 8 -9 11 0 132
-101 346 -289 204 -179 303 -261 316 -261 16 0 360 581 360 610 0 11 -115 11
-425 -1z"/>
<path d="M5780 8783 c-23 -38 -98 -167 -167 -288 -68 -121 -133 -234 -143
-250 l-19 -31 66 -44 c36 -25 165 -118 287 -207 245 -180 722 -511 774 -537
53 -27 59 -19 51 65 -4 41 -10 197 -13 348 -4 232 -8 277 -22 299 -71 108
-717 712 -762 712 -6 0 -29 -30 -52 -67z"/>
<path d="M4534 8687 c-51 -56 -103 -115 -117 -132 -49 -60 -237 -327 -238
-338 -3 -28 5 -55 28 -102 35 -69 230 -413 323 -570 43 -71 96 -163 119 -202
23 -40 44 -73 46 -73 5 0 2 83 -20 520 -19 384 -35 802 -35 913 0 48 -3 87 -7
87 -5 0 -49 -46 -99 -103z"/>
<path d="M4683 8689 c4 -57 11 -228 17 -379 6 -151 15 -367 21 -480 6 -113 13
-281 16 -373 l6 -169 20 34 c50 83 153 236 256 378 62 85 166 234 231 331
l119 176 -42 30 c-23 16 -174 146 -336 289 -161 142 -298 261 -304 263 -7 2
-8 -31 -4 -100z"/>
<path d="M4661 8684 c0 -11 3 -14 6 -6 3 7 2 16 -1 19 -3 4 -6 -2 -5 -13z"/>
<path d="M6495 8290 c10 -11 20 -20 23 -20 3 0 -3 9 -13 20 -10 11 -20 20 -23
20 -3 0 3 -9 13 -20z"/>
<path d="M5395 8143 c-15 -16 -56 -73 -93 -128 -36 -55 -106 -156 -156 -225
-227 -317 -356 -504 -356 -516 0 -2 118 -4 263 -4 290 0 814 32 1232 75 77 8
168 15 203 15 34 0 62 4 62 9 0 5 -120 93 -267 197 -148 103 -358 254 -468
334 -296 217 -372 270 -384 270 -5 0 -22 -12 -36 -27z"/>
<path d="M4146 8039 c-3 -35 -11 -163 -17 -284 l-10 -220 -68 -145 c-38 -80
-92 -197 -121 -260 -29 -63 -72 -154 -96 -202 -46 -91 -51 -108 -33 -108 18 0
482 206 751 333 l117 56 -50 93 c-28 51 -86 149 -129 218 -91 147 -132 218
-230 401 -40 75 -81 146 -90 159 -18 24 -18 24 -24 -41z"/>
<path d="M6493 7343 c9 -2 25 -2 35 0 9 3 1 5 -18 5 -19 0 -27 -2 -17 -5z"/>
<path d="M6445 7314 c-387 -45 -1130 -94 -1444 -94 -134 0 -211 -4 -209 -10 2
-7 499 -489 724 -701 l30 -29 255 211 c140 117 333 275 429 352 154 124 317
255 345 279 10 9 16 10 -130 -8z"/>
<path d="M6530 7228 c-47 -39 -157 -129 -245 -201 -345 -279 -705 -581 -705
-591 0 -10 267 -265 410 -391 30 -27 87 -80 126 -118 39 -38 74 -65 77 -61 2
5 8 25 12 44 16 78 92 332 185 615 55 165 112 345 129 400 54 184 103 366 99
370 -2 2 -42 -28 -88 -67z"/>
<path d="M5658 7273 c12 -2 32 -2 45 0 12 2 2 4 -23 4 -25 0 -35 -2 -22 -4z"/>
<path d="M5583 7263 c9 -2 23 -2 30 0 6 3 -1 5 -18 5 -16 0 -22 -2 -12 -5z"/>
<path d="M5393 7253 c15 -2 37 -2 50 0 12 2 0 4 -28 4 -27 0 -38 -2 -22 -4z"/>
<path d="M4510 7084 c-102 -47 -286 -132 -410 -189 -289 -132 -300 -137 -300
-147 0 -9 123 -72 270 -138 58 -26 170 -76 250 -113 329 -149 624 -277 628
-272 8 8 -26 151 -99 411 -38 137 -85 313 -106 392 -20 78 -39 142 -42 142 -3
-1 -89 -39 -191 -86z"/>
<path d="M4780 7068 c15 -57 47 -170 70 -253 23 -82 68 -250 99 -372 32 -122
60 -225 63 -228 3 -3 32 10 65 28 33 19 140 73 237 120 156 76 176 88 167 104
-5 10 -44 52 -88 93 -43 41 -201 194 -351 340 -151 146 -277 266 -282 268 -4
2 5 -43 20 -100z"/>
<path d="M4980 6995 c13 -14 26 -25 28 -25 3 0 -5 11 -18 25 -13 14 -26 25
-28 25 -3 0 5 -11 18 -25z"/>
<path d="M4175 6960 c-3 -6 1 -7 9 -4 18 7 21 14 7 14 -6 0 -13 -4 -16 -10z"/>
<path d="M5340 6647 c0 -2 15 -16 33 -33 l32 -29 -29 33 c-28 30 -36 37 -36
29z"/>
<path d="M3928 6583 c32 -57 34 -115 8 -240 -24 -114 -20 -144 22 -165 18 -9
41 -23 51 -32 15 -14 34 -14 191 -1 96 8 238 21 315 29 77 8 184 18 238 22 54
4 95 10 90 15 -4 4 -46 23 -93 42 -103 41 -450 198 -667 302 -87 41 -164 75
-170 75 -7 0 0 -21 15 -47z"/>
<path d="M5282 6292 l-234 -117 104 -33 c175 -56 423 -128 663 -192 127 -34
245 -68 263 -75 17 -8 32 -11 32 -7 0 4 -75 75 -167 157 -92 83 -222 203 -289
268 -67 64 -125 117 -130 117 -5 0 -114 -53 -242 -118z"/>
<path d="M5730 6255 c13 -14 26 -25 28 -25 3 0 -5 11 -18 25 -13 14 -26 25
-28 25 -3 0 5 -11 18 -25z"/>
<path d="M4728 6173 c12 -2 30 -2 40 0 9 3 -1 5 -23 4 -22 0 -30 -2 -17 -4z"/>
<path d="M4628 6163 c12 -2 30 -2 40 0 9 3 -1 5 -23 4 -22 0 -30 -2 -17 -4z"/>
<path d="M4508 6153 c7 -3 16 -2 19 1 4 3 -2 6 -13 5 -11 0 -14 -3 -6 -6z"/>
<path d="M4558 6153 c6 -2 18 -2 25 0 6 3 1 5 -13 5 -14 0 -19 -2 -12 -5z"/>
<path d="M4555 6134 c-121 -13 -276 -28 -345 -34 -158 -13 -162 -14 -205 -51
-40 -36 -42 -46 -15 -91 22 -38 46 -166 59 -313 11 -122 21 -149 63 -175 45
-27 164 -27 375 2 l163 22 19 42 c20 43 194 460 237 567 l23 57 -77 -1 c-42
-1 -176 -12 -297 -25z"/>
<path d="M4413 6143 c9 -2 23 -2 30 0 6 3 -1 5 -18 5 -16 0 -22 -2 -12 -5z"/>
<path d="M4328 6133 c12 -2 30 -2 40 0 9 3 -1 5 -23 4 -22 0 -30 -2 -17 -4z"/>
<path d="M4960 6105 c-27 -71 -224 -544 -242 -578 -19 -37 -19 -38 1 -66 33
-46 60 -126 85 -254 32 -158 45 -313 59 -684 0 -16 -6 -18 357 95 168 52 370
114 450 138 80 24 194 61 254 84 60 22 140 49 177 60 93 28 92 45 -3 95 -40
21 -111 59 -158 85 -94 52 -690 373 -730 393 -21 11 -37 50 -112 272 -48 142
-92 282 -98 310 -15 73 -26 86 -40 50z"/>
<path d="M5030 6106 c0 -23 145 -459 179 -540 20 -44 23 -48 49 -42 57 14 291
79 382 106 52 16 182 54 289 85 106 30 204 61 218 69 l25 13 -44 16 c-23 9
-117 36 -208 60 -238 64 -690 191 -797 225 -93 30 -93 30 -93 8z"/>
<path d="M4078 6113 c17 -2 47 -2 65 0 17 2 3 4 -33 4 -36 0 -50 -2 -32 -4z"/>
<path d="M6140 5721 c-8 -5 -107 -34 -220 -64 -251 -68 -440 -120 -543 -148
l-77 -22 27 -17 c16 -9 107 -58 203 -109 96 -52 291 -157 433 -234 142 -77
261 -137 264 -133 4 4 1 86 -6 184 -6 97 -15 261 -18 365 -6 181 -7 187 -27
187 -12 0 -28 -4 -36 -9z"/>
<path d="M4408 5433 c7 -3 16 -2 19 1 4 3 -2 6 -13 5 -11 0 -14 -3 -6 -6z"/>
<path d="M4188 5423 c7 -3 16 -2 19 1 4 3 -2 6 -13 5 -11 0 -14 -3 -6 -6z"/>
<path d="M5768 4763 c7 -3 16 -2 19 1 4 3 -2 6 -13 5 -11 0 -14 -3 -6 -6z"/>
<path d="M5680 4740 c-18 -12 -2 -12 25 0 13 6 15 9 5 9 -8 0 -22 -4 -30 -9z"/>
<path d="M5605 4720 c-13 -6 -15 -9 -5 -9 8 0 22 4 30 9 18 12 2 12 -25 0z"/>
<path d="M4938 9433 c7 -3 16 -2 19 1 4 3 -2 6 -13 5 -11 0 -14 -3 -6 -6z"/>
<path d="M5918 9423 c7 -3 16 -2 19 1 4 3 -2 6 -13 5 -11 0 -14 -3 -6 -6z"/>
<path d="M3098 6443 c7 -3 16 -2 19 1 4 3 -2 6 -13 5 -11 0 -14 -3 -6 -6z"/>
<path d="M4103 4913 c9 -2 25 -2 35 0 9 3 1 5 -18 5 -19 0 -27 -2 -17 -5z"/>
<path d="M6488 4323 c7 -3 16 -2 19 1 4 3 -2 6 -13 5 -11 0 -14 -3 -6 -6z"/>
<path d="M6723 4313 c9 -2 25 -2 35 0 9 3 1 5 -18 5 -19 0 -27 -2 -17 -5z"/>
<path d="M6588 4303 c18 -2 45 -2 60 0 15 2 0 4 -33 4 -33 0 -45 -2 -27 -4z"/>
<path d="M6493 4293 c9 -2 23 -2 30 0 6 3 -1 5 -18 5 -16 0 -22 -2 -12 -5z"/>
<path d="M6328 4273 c6 -2 18 -2 25 0 6 3 1 5 -13 5 -14 0 -19 -2 -12 -5z"/>
<path d="M6098 4233 c7 -3 16 -2 19 1 4 3 -2 6 -13 5 -11 0 -14 -3 -6 -6z"/>
<path d="M6058 4223 c7 -3 16 -2 19 1 4 3 -2 6 -13 5 -11 0 -14 -3 -6 -6z"/>
<path d="M5808 4163 c7 -3 16 -2 19 1 4 3 -2 6 -13 5 -11 0 -14 -3 -6 -6z"/>
<path d="M4273 3853 c9 -2 25 -2 35 0 9 3 1 5 -18 5 -19 0 -27 -2 -17 -5z"/>
<path d="M4583 3853 c9 -2 25 -2 35 0 9 3 1 5 -18 5 -19 0 -27 -2 -17 -5z"/>
<path d="M4368 3843 c23 -2 59 -2 80 0 20 2 1 4 -43 4 -44 0 -61 -2 -37 -4z"/>
<path d="M2242 2543 c-11 -32 -34 -98 -51 -148 -16 -49 -52 -154 -80 -232
l-50 -143 206 0 c191 0 205 1 198 18 -4 9 -29 80 -55 157 -80 234 -138 396
-143 401 -2 2 -13 -22 -25 -53z"/>
<path d="M2088 2003 c12 -2 32 -2 45 0 12 2 2 4 -23 4 -25 0 -35 -2 -22 -4z"/>
<path d="M2208 2003 c7 -3 16 -2 19 1 4 3 -2 6 -13 5 -11 0 -14 -3 -6 -6z"/>
<path d="M2428 2003 c7 -3 16 -2 19 1 4 3 -2 6 -13 5 -11 0 -14 -3 -6 -6z"/>
<path d="M7713 2545 c0 -44 2 -61 4 -37 2 23 2 59 0 80 -2 20 -4 1 -4 -43z"/>
<path d="M7713 2425 c0 -22 2 -30 4 -17 2 12 2 30 0 40 -3 9 -5 -1 -4 -23z"/>
<path d="M7714 2275 c0 -60 1 -84 3 -52 2 32 2 81 0 110 -2 29 -3 3 -3 -58z"/>
<path d="M7714 2000 c0 -91 2 -128 3 -82 2 45 2 119 0 165 -1 45 -3 8 -3 -83z"/>
<path d="M7713 1770 c0 -36 2 -50 4 -32 2 17 2 47 0 65 -2 17 -4 3 -4 -33z"/>
</g>
</svg>
